<svg width="128" height="128" viewBox="0 0 128 128" fill="none" xmlns="http://www.w3.org/2000/svg">
<g clip-path="url(#clip0_221_605)">
<path d="M87.603 35.6243C103.419 21.6981 112.571 27.2687 112.571 27.2687V73.7229C112.671 75.215 112.77 76.8067 112.77 78.2988C112.77 105.256 90.9851 127.041 64.0276 127.041C37.0701 127.041 15.2854 105.256 15.2854 78.2988C15.2854 76.8067 15.3846 75.4139 15.4841 74.0213V27.2687C15.4841 27.2687 24.6358 21.6981 40.4521 35.6243C47.4153 31.7449 55.4728 29.5566 64.0276 29.5566C72.5823 29.5566 80.6399 31.7449 87.603 35.6243Z" fill="#00B0F3"/>
<mask id="mask0_221_605" style="mask-type:alpha" maskUnits="userSpaceOnUse" x="15" y="26" width="98" height="102">
<path d="M87.603 35.6243C103.419 21.6981 112.571 27.2687 112.571 27.2687V73.7229C112.671 75.215 112.77 76.8067 112.77 78.2988C112.77 105.256 90.9851 127.041 64.0276 127.041C37.0701 127.041 15.2854 105.256 15.2854 78.2988C15.2854 76.8067 15.3846 75.4139 15.4841 74.0213V27.2687C15.4841 27.2687 24.6358 21.6981 40.4521 35.6243C47.4153 31.7449 55.4728 29.5566 64.0276 29.5566C72.5823 29.5566 80.6399 31.7449 87.603 35.6243Z" fill="#00B0F3"/>
</mask>
<g mask="url(#mask0_221_605)">
<g opacity="0.5">
<path d="M89.3073 127.458C82.9314 128.879 76.5265 124.809 75.1051 118.433C73.6838 112.057 77.7536 105.652 84.1296 104.231C90.5055 102.81 96.9104 106.88 98.3318 113.255C99.7531 119.631 95.6833 126.036 89.3073 127.458Z" fill="white"/>
<path d="M121.885 143.859C118.242 144.671 114.622 142.371 113.81 138.727C112.997 135.084 115.298 131.464 118.941 130.652C122.585 129.839 126.205 132.14 127.017 135.783C127.829 139.427 125.529 143.047 121.885 143.859Z" fill="white"/>
<path d="M62.3372 19.5771C55.9613 20.9985 49.5563 16.9286 48.135 10.5527C46.7137 4.17677 50.7835 -2.22814 57.1594 -3.64949C63.5354 -5.07083 69.9403 -1.00099 71.3616 5.37495C72.783 11.7509 68.7131 18.1558 62.3372 19.5771Z" fill="white"/>
<path d="M94.9152 35.9785C91.2719 36.7907 87.6517 34.4903 86.8395 30.847C86.0273 27.2036 88.3276 23.5834 91.971 22.7712C95.6144 21.959 99.2346 24.2593 100.047 27.9027C100.859 31.5461 98.5586 35.1663 94.9152 35.9785Z" fill="white"/>
<path d="M103.106 180.771C96.73 182.192 90.3251 178.122 88.9038 171.746C87.4824 165.37 91.5523 158.965 97.9282 157.544C104.304 156.123 110.709 160.193 112.13 166.568C113.552 172.944 109.482 179.349 103.106 180.771Z" fill="white"/>
<path d="M135.684 197.172C132.041 197.984 128.42 195.684 127.608 192.04C126.796 188.397 129.096 184.777 132.74 183.965C136.383 183.153 140.003 185.453 140.816 189.096C141.628 192.74 139.327 196.36 135.684 197.172Z" fill="white"/>
<path d="M76.1358 72.8902C69.7599 74.3115 63.355 70.2417 61.9336 63.8657C60.5123 57.4898 64.5821 51.0849 70.9581 49.6635C77.334 48.2422 83.7389 52.312 85.1602 58.688C86.5816 65.0639 82.5118 71.4688 76.1358 72.8902Z" fill="white"/>
<path d="M108.714 89.2915C105.07 90.1037 101.45 87.8034 100.638 84.16C99.8259 80.5166 102.126 76.8964 105.77 76.0842C109.413 75.272 113.033 77.5724 113.845 81.2158C114.658 84.8592 112.357 88.4793 108.714 89.2915Z" fill="white"/>
<path d="M36.1141 141.039C29.7382 142.46 23.3333 138.39 21.9119 132.014C20.4906 125.639 24.5604 119.234 30.9364 117.812C37.3123 116.391 43.7172 120.461 45.1386 126.837C46.5599 133.213 42.4901 139.618 36.1141 141.039Z" fill="white"/>
<path d="M68.6922 157.44C65.0488 158.252 61.4286 155.952 60.6164 152.309C59.8042 148.665 62.1046 145.045 65.748 144.233C69.3913 143.421 73.0115 145.721 73.8237 149.364C74.6359 153.008 72.3356 156.628 68.6922 157.44Z" fill="white"/>
<path d="M9.14414 33.1584C2.7682 34.5797 -3.63671 30.5099 -5.05806 24.1339C-6.4794 17.758 -2.40956 11.3531 3.96638 9.93175C10.3423 8.5104 16.7472 12.5802 18.1686 18.9562C19.5899 25.3321 15.5201 31.737 9.14414 33.1584Z" fill="white"/>
<path d="M41.7222 49.5597C38.0788 50.3719 34.4586 48.0716 33.6464 44.4282C32.8342 40.7848 35.1346 37.1646 38.778 36.3524C42.4214 35.5402 46.0415 37.8406 46.8537 41.484C47.6659 45.1274 45.3656 48.7475 41.7222 49.5597Z" fill="white"/>
<path d="M49.9129 194.352C43.537 195.773 37.1321 191.703 35.7107 185.327C34.2894 178.952 38.3592 172.547 44.7351 171.125C51.1111 169.704 57.516 173.774 58.9373 180.15C60.3587 186.526 56.2888 192.931 49.9129 194.352Z" fill="white"/>
<path d="M82.491 210.753C78.8476 211.565 75.2274 209.265 74.4152 205.622C73.603 201.978 75.9033 198.358 79.5467 197.546C83.1901 196.734 86.8103 199.034 87.6225 202.678C88.4347 206.321 86.1344 209.941 82.491 210.753Z" fill="white"/>
<path d="M22.9429 86.4714C16.567 87.8928 10.1621 83.8229 8.74073 77.447C7.31938 71.071 11.3892 64.6661 17.7652 63.2448C24.1411 61.8234 30.546 65.8933 31.9674 72.2692C33.3887 78.6452 29.3189 85.0501 22.9429 86.4714Z" fill="white"/>
<path d="M55.521 102.873C51.8776 103.685 48.2574 101.385 47.4452 97.7412C46.633 94.0978 48.9334 90.4777 52.5768 89.6655C56.2202 88.8533 59.8403 91.1536 60.6525 94.797C61.4647 98.4404 59.1644 102.061 55.521 102.873Z" fill="white"/>
</g>
</g>
<path d="M64.0276 97.1637C64.8233 99.0538 66.5144 100.645 68.6034 101.441C72.8807 103.033 77.556 100.844 79.1476 96.5669C78.6502 96.5669 78.0534 96.5669 77.556 96.4674H77.4566C75.9645 99.5511 72.4829 101.043 69.2002 99.8496C65.7186 98.5564 63.9281 94.7764 65.2212 91.2948C65.7186 90.1011 66.4149 89.1064 67.3102 88.41V86.719H60.7449V88.5095C61.6402 89.3053 62.436 90.2006 62.8339 91.3943C64.0276 94.8758 62.3365 98.6559 58.8549 99.949C55.6717 101.143 52.0907 99.6506 50.5985 96.5669H50.499C50.0017 96.5669 49.4048 96.5669 48.9075 96.4674V96.5669C50.4991 100.844 55.1744 103.033 59.4517 101.441C61.5407 100.645 63.1323 99.0538 64.0276 97.1637Z" fill="black"/>
<path d="M50.1012 65.6976C54.9082 65.6976 58.8051 69.5945 58.8051 74.4016H57.313C57.313 70.4186 54.0842 67.1897 50.1012 67.1897C46.1182 67.1897 42.8893 70.4186 42.8893 74.4016H41.3972C41.3972 69.5945 45.2941 65.6976 50.1012 65.6976ZM77.9539 65.6976C82.761 65.6976 86.6579 69.5945 86.6579 74.4016H85.1658C85.1658 70.4186 81.9369 67.1897 77.9539 67.1897C73.9709 67.1897 70.742 70.4186 70.742 74.4016H69.2499C69.2499 69.5945 73.1468 65.6976 77.9539 65.6976Z" fill="black"/>
<path d="M67.3102 86.719H60.7449V88.5095C61.6402 89.3053 62.436 90.2006 62.8339 91.3943C64.0276 94.8758 62.3365 98.6559 58.8549 99.949C55.6717 101.143 52.0907 99.6506 50.5985 96.5669H50.499L50.4991 95.9484H50.9865L51.1553 96.2975C52.5131 99.1035 55.7641 100.447 58.6376 99.3698L58.6395 99.3692C61.7941 98.1974 63.3381 94.7717 62.2489 91.5948L62.248 91.5924L62.2471 91.5897C61.8997 90.5474 61.1978 89.7396 60.334 88.9717L60.1265 88.7872V86.1006H67.9286V88.7126L67.69 88.8983C66.9003 89.5125 66.2627 90.4072 65.7965 91.522C64.6344 94.6704 66.2484 98.0911 69.4117 99.2683L69.5512 99.3172C72.486 100.308 75.5632 98.9603 76.8998 96.1982L77.0689 95.8491H77.6173L77.6774 95.8609C78.1032 95.946 78.6349 95.9484 79.1475 95.9484H80.0375L79.7274 96.7825C78.0188 101.374 72.991 103.734 68.3876 102.021L68.3855 102.02L68.3831 102.019C66.5475 101.32 64.9882 100.043 64.0096 98.4674C63.0083 100.028 61.5245 101.313 59.672 102.019L59.6696 102.02L59.6675 102.021C55.0641 103.734 50.0363 101.374 48.3277 96.7825L48.2891 96.6784V95.7129L49.0287 95.8609C49.4545 95.946 49.9865 95.9484 50.4991 95.9484L50.499 96.5669L50.1104 96.5654C49.7095 96.5607 49.2805 96.542 48.9075 96.4674V96.5669C50.4742 100.777 55.0291 102.964 59.251 101.513L59.4517 101.441C61.5407 100.645 63.1323 99.0538 64.0276 97.1637C64.8233 99.0538 66.5144 100.645 68.6034 101.441C72.8807 103.033 77.556 100.844 79.1476 96.5669C78.6502 96.5669 78.0534 96.5669 77.556 96.4674H77.4566C75.9878 99.5029 72.5912 100.996 69.3543 99.9034L69.2002 99.8496C65.7186 98.5564 63.9281 94.7764 65.2212 91.2948C65.7186 90.1011 66.4149 89.1064 67.3102 88.41V86.719ZM50.1011 65.0791C55.2497 65.0791 59.4237 69.2529 59.4237 74.4015V75.02H56.6946V74.4015C56.6945 70.7601 53.7425 67.8083 50.1011 67.8083C46.4597 67.8083 43.5079 70.7601 43.5078 74.4015V75.02H40.7787V74.4015C40.7787 69.2529 44.9525 65.0792 50.1011 65.0791ZM77.954 65.0791C83.1026 65.0792 87.2764 69.2529 87.2764 74.4015V75.02H84.5473V74.4015C84.5472 70.7601 81.5954 67.8083 77.954 67.8083C74.3126 67.8083 71.3606 70.7601 71.3605 74.4015V75.02H68.6314V74.4015C68.6314 69.2529 72.8054 65.0791 77.954 65.0791ZM58.8051 74.4016C58.8051 69.5945 54.9082 65.6976 50.1012 65.6976C45.2941 65.6976 41.3972 69.5945 41.3972 74.4016H42.8893C42.8893 70.4186 46.1182 67.1897 50.1012 67.1897L50.2874 67.1922C54.1843 67.291 57.313 70.4809 57.313 74.4016H58.8051ZM86.6579 74.4016C86.6578 69.6696 82.8817 65.8194 78.1784 65.7003L77.9539 65.6976C73.1468 65.6976 69.2499 69.5945 69.2499 74.4016H70.742C70.742 70.4186 73.9709 67.1897 77.9539 67.1897L78.1401 67.1922C82.037 67.2909 85.1657 70.4809 85.1658 74.4016H86.6579Z" fill="black"/>
</g>
<defs>
<clipPath id="clip0_221_605">
<rect width="128" height="128" rx="64" fill="white"/>
</clipPath>
</defs>
</svg>
