<svg width="128" height="128" viewBox="0 0 128 128" fill="none" xmlns="http://www.w3.org/2000/svg">
<g clip-path="url(#clip0_221_605)">
<path d="M87.5756 33.0197C103.392 19.0934 112.544 24.664 112.544 24.664V71.1183C112.643 72.6104 112.742 74.202 112.742 75.6942C112.742 102.652 90.9576 124.436 64.0001 124.436C37.0426 124.436 15.2579 102.652 15.2579 75.6942C15.2579 74.202 15.3572 72.8093 15.4566 71.4167V24.664C15.4566 24.664 24.6083 19.0934 40.4246 33.0197C47.3878 29.1402 55.4453 26.952 64.0001 26.952C72.5549 26.952 80.6124 29.1402 87.5756 33.0197Z" fill="#439BA7"/>
<path d="M64.0001 94.5592C64.7959 96.4492 66.4869 98.0408 68.5759 98.8366C72.8533 100.428 77.5285 98.2397 79.1201 93.9624C78.6227 93.9624 78.0259 93.9624 77.5286 93.8629H77.4291C75.937 96.9466 72.4554 98.4387 69.1727 97.245C65.6911 95.9518 63.9006 92.1718 65.1938 88.6902C65.6912 87.4965 66.3875 86.5018 67.2827 85.8055V84.1144H60.7174V85.9049C61.6127 86.7007 62.4085 87.596 62.8064 88.7897C64.0001 92.2713 62.309 96.0513 58.8274 97.3445C55.6443 98.5382 52.0632 97.046 50.5711 93.9624H50.4716C49.9742 93.9624 49.3774 93.9624 48.88 93.8629V93.9624C50.4716 98.2397 55.1469 100.428 59.4243 98.8366C61.5132 98.0408 63.1048 96.4492 64.0001 94.5592Z" fill="black"/>
<path d="M50.0737 63.093C54.8808 63.093 58.7777 66.9899 58.7777 71.797H57.2856C57.2856 67.814 54.0567 64.5852 50.0737 64.5852C46.0907 64.5852 42.8618 67.814 42.8618 71.797H41.3697C41.3697 66.9899 45.2666 63.093 50.0737 63.093ZM77.9264 63.093C82.7335 63.093 86.6304 66.9899 86.6304 71.797H85.1383C85.1383 67.814 81.9095 64.5852 77.9264 64.5852C73.9434 64.5852 70.7146 67.814 70.7146 71.797H69.2225C69.2225 66.9899 73.1194 63.093 77.9264 63.093Z" fill="black"/>
<path d="M67.2827 84.1144H60.7174V85.9049C61.6127 86.7007 62.4085 87.596 62.8064 88.7897C64.0001 92.2713 62.309 96.0513 58.8274 97.3445C55.6443 98.5382 52.0632 97.046 50.5711 93.9624H50.4716L50.4716 93.3439H50.9591L51.1279 93.693C52.4856 96.499 55.7366 97.8428 58.6102 96.7652L58.612 96.7646C61.7667 95.5929 63.3107 92.1672 62.2215 88.9903L62.2206 88.9879L62.2197 88.9851C61.8722 87.9428 61.1704 87.135 60.3065 86.3671L60.099 86.1826V83.496H67.9011V86.108L67.6626 86.2937C66.8729 86.9079 66.2352 87.8027 65.769 88.9175C64.6069 92.0659 66.2209 95.4865 69.3843 96.6637L69.5238 96.7127C72.4585 97.7035 75.5357 96.3558 76.8723 93.5936L77.0414 93.2445H77.5898L77.6499 93.2563C78.0757 93.3414 78.6075 93.3439 79.1201 93.3439H80.0101L79.6999 94.178C77.9914 98.7697 72.9635 101.129 68.3602 99.4162L68.3581 99.4155L68.3556 99.4146C66.5201 98.7154 64.9608 97.4381 63.9821 95.8628C62.9808 97.4237 61.497 98.7089 59.6445 99.4146L59.6421 99.4155L59.64 99.4162C55.0367 101.129 50.0088 98.7697 48.3003 94.178L48.2616 94.0738V93.1083L49.0012 93.2563C49.427 93.3415 49.959 93.3439 50.4716 93.3439L50.4716 93.9624L50.083 93.9609C49.682 93.9562 49.253 93.9375 48.88 93.8629V93.9624C50.4468 98.1729 55.0016 100.359 59.2235 98.9085L59.4243 98.8366C61.5132 98.0408 63.1048 96.4492 64.0001 94.5592C64.7959 96.4492 66.4869 98.0408 68.5759 98.8366C72.8533 100.428 77.5285 98.2397 79.1201 93.9624C78.6227 93.9624 78.0259 93.9624 77.5286 93.8629H77.4291C75.9603 96.8983 72.5638 98.3915 69.3269 97.2988L69.1727 97.245C65.6911 95.9518 63.9006 92.1718 65.1938 88.6902C65.6912 87.4965 66.3875 86.5018 67.2827 85.8055V84.1144ZM50.0736 62.4745C55.2222 62.4745 59.3962 66.6483 59.3963 71.7969V72.4154H56.6671V71.7969C56.6671 68.1555 53.715 65.2037 50.0736 65.2037C46.4323 65.2038 43.4804 68.1556 43.4804 71.7969V72.4154H40.7512V71.7969C40.7513 66.6483 44.925 62.4746 50.0736 62.4745ZM77.9266 62.4745C83.0751 62.4746 87.2489 66.6483 87.2489 71.7969V72.4154H84.5198V71.7969C84.5197 68.1556 81.5679 65.2038 77.9266 65.2037C74.2852 65.2037 71.3331 68.1555 71.333 71.7969V72.4154H68.6039V71.7969C68.6039 66.6483 72.7779 62.4745 77.9266 62.4745ZM58.7777 71.797C58.7777 66.9899 54.8808 63.093 50.0737 63.093C45.2666 63.093 41.3697 66.9899 41.3697 71.797H42.8618C42.8618 67.814 46.0907 64.5852 50.0737 64.5852L50.2599 64.5876C54.1568 64.6864 57.2855 67.8763 57.2856 71.797H58.7777ZM86.6304 71.797C86.6304 67.0651 82.8542 63.2148 78.151 63.0958L77.9264 63.093C73.1194 63.093 69.2225 66.9899 69.2225 71.797H70.7146C70.7146 67.814 73.9434 64.5852 77.9264 64.5852L78.1126 64.5876C82.0095 64.6864 85.1383 67.8763 85.1383 71.797H86.6304Z" fill="black"/>
</g>
<defs>
<clipPath id="clip0_221_605">
<rect width="128" height="128" rx="64" fill="white"/>
</clipPath>
</defs>
</svg>
