<svg width="128" height="128" viewBox="0 0 128 128" fill="none" xmlns="http://www.w3.org/2000/svg">
<g clip-path="url(#clip0_221_605)">
<path d="M87.5756 35.5968C103.392 21.6705 112.544 27.2411 112.544 27.2411V73.6953C112.643 75.1874 112.742 76.7791 112.742 78.2712C112.742 105.229 90.9576 127.013 64.0001 127.013C37.0426 127.013 15.2579 105.229 15.2579 78.2712C15.2579 76.7791 15.3572 75.3863 15.4566 73.9937V27.2411C15.4566 27.2411 24.6083 21.6705 40.4246 35.5968C47.3878 31.7173 55.4453 29.529 64.0001 29.529C72.5549 29.529 80.6124 31.7173 87.5756 35.5968Z" fill="#43B800"/>
<path d="M64.0001 97.1362C64.7959 99.0262 66.4869 100.618 68.5759 101.414C72.8533 103.005 77.5285 100.817 79.1201 96.5394C78.6227 96.5394 78.0259 96.5394 77.5286 96.4399H77.4291C75.937 99.5236 72.4554 101.016 69.1727 99.822C65.6911 98.5289 63.9006 94.7488 65.1938 91.2672C65.6912 90.0736 66.3875 89.0788 67.2827 88.3825V86.6914H60.7174V88.482C61.6127 89.2778 62.4085 90.173 62.8064 91.3667C64.0001 94.8483 62.309 98.6283 58.8274 99.9215C55.6443 101.115 52.0632 99.6231 50.5711 96.5394H50.4716C49.9742 96.5394 49.3774 96.5394 48.88 96.4399V96.5394C50.4716 100.817 55.1469 103.005 59.4243 101.414C61.5132 100.618 63.1048 99.0262 64.0001 97.1362Z" fill="black"/>
<path d="M50.0737 65.6701C54.8808 65.6701 58.7777 69.567 58.7777 74.3741H57.2856C57.2856 70.391 54.0567 67.1622 50.0737 67.1622C46.0907 67.1622 42.8618 70.391 42.8618 74.3741H41.3697C41.3697 69.567 45.2666 65.6701 50.0737 65.6701ZM77.9264 65.6701C82.7335 65.6701 86.6304 69.567 86.6304 74.3741H85.1383C85.1383 70.391 81.9095 67.1622 77.9264 67.1622C73.9434 67.1622 70.7146 70.391 70.7146 74.3741H69.2225C69.2225 69.567 73.1194 65.6701 77.9264 65.6701Z" fill="black"/>
<path d="M67.2827 86.6914H60.7174V88.482C61.6127 89.2778 62.4085 90.173 62.8064 91.3667C64.0001 94.8483 62.309 98.6283 58.8274 99.9215C55.6443 101.115 52.0632 99.6231 50.5711 96.5394H50.4716L50.4716 95.9209H50.9591L51.1279 96.27C52.4856 99.076 55.7366 100.42 58.6102 99.3422L58.612 99.3416C61.7667 98.1699 63.3107 94.7442 62.2215 91.5673L62.2206 91.5649L62.2197 91.5622C61.8722 90.5199 61.1704 89.712 60.3065 88.9441L60.099 88.7596V86.0731H67.9011V88.685L67.6626 88.8708C66.8729 89.485 66.2352 90.3797 65.769 91.4945C64.6069 94.6429 66.2209 98.0635 69.3843 99.2408L69.5238 99.2897C72.4585 100.281 75.5357 98.9328 76.8723 96.1707L77.0414 95.8215H77.5898L77.6499 95.8333C78.0757 95.9185 78.6075 95.9209 79.1201 95.9209H80.0101L79.6999 96.755C77.9914 101.347 72.9635 103.706 68.3602 101.993L68.3581 101.993L68.3556 101.992C66.5201 101.292 64.9608 100.015 63.9821 98.4399C62.9808 100.001 61.497 101.286 59.6445 101.992L59.6421 101.993L59.64 101.993C55.0367 103.706 50.0088 101.347 48.3003 96.755L48.2616 96.6508V95.6853L49.0012 95.8333C49.427 95.9185 49.959 95.9209 50.4716 95.9209L50.4716 96.5394L50.083 96.5379C49.682 96.5332 49.253 96.5145 48.88 96.4399V96.5394C50.4468 100.75 55.0016 102.936 59.2235 101.486L59.4243 101.414C61.5132 100.618 63.1048 99.0262 64.0001 97.1362C64.7959 99.0262 66.4869 100.618 68.5759 101.414C72.8533 103.005 77.5285 100.817 79.1201 96.5394C78.6227 96.5394 78.0259 96.5394 77.5286 96.4399H77.4291C75.9603 99.4753 72.5638 100.968 69.3269 99.8759L69.1727 99.822C65.6911 98.5289 63.9006 94.7488 65.1938 91.2672C65.6912 90.0736 66.3875 89.0788 67.2827 88.3825V86.6914ZM50.0736 65.0516C55.2222 65.0516 59.3962 69.2253 59.3963 74.374V74.9924H56.6671V74.374C56.6671 70.7326 53.715 67.7807 50.0736 67.7807C46.4323 67.7808 43.4804 70.7326 43.4804 74.374V74.9924H40.7512V74.374C40.7513 69.2254 44.925 65.0516 50.0736 65.0516ZM77.9266 65.0516C83.0751 65.0516 87.2489 69.2254 87.2489 74.374V74.9924H84.5198V74.374C84.5197 70.7326 81.5679 67.7808 77.9266 67.7807C74.2852 67.7807 71.3331 70.7326 71.333 74.374V74.9924H68.6039V74.374C68.6039 69.2253 72.7779 65.0516 77.9266 65.0516ZM58.7777 74.3741C58.7777 69.567 54.8808 65.6701 50.0737 65.6701C45.2666 65.6701 41.3697 69.567 41.3697 74.3741H42.8618C42.8618 70.391 46.0907 67.1622 50.0737 67.1622L50.2599 67.1647C54.1568 67.2634 57.2855 70.4534 57.2856 74.3741H58.7777ZM86.6304 74.3741C86.6304 69.6421 82.8542 65.7919 78.151 65.6728L77.9264 65.6701C73.1194 65.6701 69.2225 69.567 69.2225 74.3741H70.7146C70.7146 70.391 73.9434 67.1622 77.9264 67.1622L78.1126 67.1647C82.0095 67.2634 85.1383 70.4533 85.1383 74.3741H86.6304Z" fill="black"/>
</g>
<defs>
<clipPath id="clip0_221_605">
<rect width="128" height="128" rx="64" fill="white"/>
</clipPath>
</defs>
</svg>
