<svg width="100" height="100" viewBox="0 0 100 100" fill="none" xmlns="http://www.w3.org/2000/svg">
<path d="M37.4529 38.8777C41.784 38.8777 45.295 42.3887 45.295 46.7198H43.9506C43.9506 43.1312 41.0415 40.222 37.4529 40.222C33.8643 40.222 30.9552 43.1312 30.9552 46.7198H29.6108C29.6108 42.3887 33.1219 38.8777 37.4529 38.8777ZM62.5475 38.8777C66.8786 38.8777 70.3896 42.3887 70.3896 46.7198H69.0453C69.0453 43.1312 66.1361 40.222 62.5475 40.222C58.9589 40.222 56.0498 43.1312 56.0498 46.7198H54.7055C54.7055 42.3887 58.2165 38.8777 62.5475 38.8777Z" fill="#FF0000"/>
<path d="M50 66.8003C50.717 68.5032 52.2406 69.9372 54.1227 70.6542C57.9766 72.0881 62.1888 70.1164 63.6228 66.2626C63.1747 66.2626 62.637 66.2626 62.1889 66.173H62.0992C60.7549 68.9513 57.6181 70.2957 54.6605 69.2202C51.5236 68.0551 49.9104 64.6494 51.0755 61.5125C51.5237 60.437 52.151 59.5408 52.9576 58.9135V57.3898H47.0425V59.0031C47.8491 59.7201 48.5661 60.5267 48.9246 61.6022C50 64.739 48.4764 68.1447 45.3396 69.3098C42.4717 70.3853 39.2452 69.0409 37.9009 66.2626H37.8112C37.3631 66.2626 36.8254 66.2626 36.3773 66.173V66.2626C37.8112 70.1164 42.0235 72.0881 45.8774 70.6542C47.7595 69.9372 49.1934 68.5032 50 66.8003Z" fill="#FF0000"/>
</svg>
