<svg width="120" height="120" viewBox="0 0 120 120" fill="none" xmlns="http://www.w3.org/2000/svg">
<path d="M91.1416 25.6001C102.941 13.2004 109.741 13.3003 109.741 19.3003C109.741 25.6003 113.541 53.7998 110.441 61.6001C110.341 62.1001 110.241 62.6005 109.941 63.0005L87.3408 102C86.4408 103.5 84.8409 104.5 83.041 104.5H37.8408C36.041 104.5 34.441 103.6 33.541 102L10.9414 63.0005C10.8414 63.0005 10.8408 62.8999 10.8408 62.8999C6.64136 57.3987 10.9414 26.0002 10.9414 19.3003C10.9414 13.3003 17.7416 13.2003 29.6416 25.8003L33.541 19.1001C34.441 17.6002 36.041 16.6002 37.8408 16.6001H83.041C84.8409 16.6001 86.4408 17.5003 87.3408 19.1001L91.1416 25.6001Z" fill="black"/>
</svg>
