<svg width="120" height="120" viewBox="0 0 120 120" fill="none" xmlns="http://www.w3.org/2000/svg">
<path d="M106.294 10.2002C109.094 10.2002 111.294 12.3002 111.294 15.2002C111.294 16.1002 111.094 16.9002 110.594 17.7002L95.894 68.2002L64.2944 107.7C62.8945 110.1 59.8946 110.9 57.4946 109.5C56.6947 109.1 56.0948 108.4 55.6948 107.7L24.0942 68.2002L9.39404 17.7002C7.99416 15.3002 8.79487 12.3004 11.1948 10.9004C11.9947 10.5005 12.7949 10.2002 13.6948 10.2002C13.787 10.2641 35.3475 25.2002 59.9946 25.2002C84.6945 25.2001 106.294 10.2002 106.294 10.2002Z" fill="black"/>
</svg>
