<svg width="696" height="689" viewBox="0 0 696 689" fill="none" xmlns="http://www.w3.org/2000/svg">
<path d="M370.606 347.398C379.674 371.07 367.679 397.962 344.008 407.03C320.336 416.098 293.444 404.103 284.376 380.432C275.308 356.761 287.303 329.868 310.974 320.8C334.645 311.732 361.538 323.727 370.606 347.398Z" fill="white"/>
<path d="M415.114 213.046C420.296 226.572 413.516 241.773 399.99 246.954C386.463 252.136 371.263 245.356 366.081 231.83C360.9 218.303 367.68 203.103 381.206 197.921C394.732 192.74 409.933 199.52 415.114 213.046Z" fill="white"/>
<path d="M567.45 264.229C576.518 287.9 564.523 314.792 540.851 323.86C517.18 332.928 490.288 320.933 481.22 297.262C472.152 273.591 484.147 246.698 507.818 237.63C531.489 228.562 558.382 240.558 567.45 264.229Z" fill="white"/>
<path d="M611.958 129.876C617.14 143.402 610.36 158.603 596.834 163.784C583.307 168.966 568.107 162.186 562.925 148.66C557.744 135.133 564.524 119.933 578.05 114.752C591.576 109.57 606.777 116.35 611.958 129.876Z" fill="white"/>
<path d="M168.591 428.872C177.659 452.543 165.664 479.435 141.993 488.503C118.322 497.571 91.4289 485.576 82.361 461.905C73.293 438.234 85.2884 411.341 108.959 402.273C132.631 393.205 159.523 405.201 168.591 428.872Z" fill="white"/>
<path d="M213.1 294.519C218.281 308.045 211.501 323.246 197.975 328.427C184.449 333.609 169.248 326.829 164.067 313.303C158.885 299.776 165.665 284.576 179.191 279.395C192.718 274.213 207.918 280.993 213.1 294.519Z" fill="white"/>
<path d="M452.874 543.906C461.942 567.577 449.946 594.469 426.275 603.537C402.604 612.605 375.711 600.61 366.643 576.939C357.575 553.268 369.571 526.375 393.242 517.307C416.913 508.239 443.806 520.234 452.874 543.906Z" fill="white"/>
<path d="M497.382 409.553C502.564 423.079 495.784 438.28 482.257 443.461C468.731 448.643 453.531 441.863 448.349 428.337C443.167 414.81 449.947 399.61 463.474 394.428C477 389.247 492.2 396.027 497.382 409.553Z" fill="white"/>
<path d="M649.717 460.735C658.785 484.406 646.79 511.299 623.119 520.367C599.448 529.435 572.555 517.44 563.487 493.768C554.419 470.097 566.414 443.205 590.086 434.137C613.757 425.069 640.649 437.064 649.717 460.735Z" fill="white"/>
<path d="M694.226 326.383C699.407 339.909 692.627 355.109 679.101 360.291C665.575 365.473 650.374 358.693 645.193 345.166C640.011 331.64 646.791 316.44 660.317 311.258C673.844 306.076 689.044 312.856 694.226 326.383Z" fill="white"/>
<path d="M250.859 625.377C259.927 649.048 247.931 675.941 224.26 685.009C200.589 694.077 173.696 682.082 164.628 658.411C155.56 634.74 167.556 607.847 191.227 598.779C214.898 589.711 241.791 601.706 250.859 625.377Z" fill="white"/>
<path d="M295.367 491.025C300.549 504.551 293.769 519.752 280.242 524.933C266.716 530.115 251.516 523.335 246.334 509.809C241.152 496.282 247.932 481.082 261.459 475.9C274.985 470.719 290.185 477.499 295.367 491.025Z" fill="white"/>
<path d="M291.657 151.492C300.725 175.163 288.73 202.056 265.059 211.124C241.388 220.192 214.495 208.196 205.427 184.525C196.359 160.854 208.354 133.961 232.025 124.893C255.697 115.825 282.589 127.821 291.657 151.492Z" fill="white"/>
<path d="M336.166 17.1396C341.347 30.6659 334.567 45.8661 321.041 51.0478C307.515 56.2296 292.314 49.4495 287.133 35.9232C281.951 22.3969 288.731 7.19662 302.257 2.0149C315.784 -3.16681 330.984 3.61325 336.166 17.1396Z" fill="white"/>
<path d="M488.501 68.3215C497.569 91.9925 485.574 118.885 461.903 127.953C438.232 137.021 411.339 125.026 402.271 101.355C393.203 77.6837 405.198 50.7909 428.869 41.7229C452.54 32.655 479.433 44.6504 488.501 68.3215Z" fill="white"/>
<path d="M89.6423 232.964C98.7103 256.635 86.7149 283.528 63.0438 292.596C39.3727 301.664 12.4799 289.668 3.41196 265.997C-5.65602 242.326 6.33939 215.433 30.0105 206.365C53.6815 197.297 80.5743 209.293 89.6423 232.964Z" fill="white"/>
<path d="M134.151 98.6114C139.332 112.138 132.552 127.338 119.026 132.52C105.5 137.701 90.2994 130.921 85.1177 117.395C79.936 103.869 86.716 88.6684 100.242 83.4867C113.769 78.305 128.969 85.0851 134.151 98.6114Z" fill="white"/>
</svg>
