<svg width="512" height="512" viewBox="0 0 512 512" fill="none" xmlns="http://www.w3.org/2000/svg">
<g clip-path="url(#clip0_221_609)">
<rect width="512" height="512" fill="url(#paint0_linear_221_609)"/>
<path opacity="0.8" d="M347.482 106.98C408.802 52.9882 444.305 74.5181 444.368 74.5562V254.818C444.754 260.608 445.14 266.784 445.14 272.574C445.14 377.18 360.606 461.713 256 461.713C151.394 461.713 66.8604 377.18 66.8604 272.574C66.8604 266.784 67.2458 261.379 67.6318 255.975V74.5562C67.7666 74.4745 103.26 53.0432 164.518 106.98C191.538 91.9261 222.804 83.4342 256 83.4342C289.196 83.4342 320.462 91.9261 347.482 106.98ZM240.861 302.848V313.274L241.667 313.99C245.019 316.97 247.743 320.104 249.091 324.149L249.094 324.159L249.098 324.169C253.324 336.496 247.333 349.789 235.092 354.336L235.085 354.338C223.934 358.52 211.318 353.305 206.05 342.417L205.395 341.062H203.504C201.515 341.062 199.45 341.053 197.798 340.722L194.928 340.148V343.894L195.078 344.298C201.708 362.116 221.218 371.272 239.081 364.626L239.089 364.622L239.098 364.619C246.286 361.88 252.044 356.893 255.93 350.837C259.727 356.949 265.779 361.905 272.901 364.619L272.91 364.622L272.919 364.626C290.782 371.272 310.291 362.116 316.921 344.298L318.125 341.062H314.672C312.683 341.062 310.619 341.053 308.967 340.722L308.733 340.675H306.604L305.949 342.031C300.68 352.919 288.441 358.144 276.892 353.944C264.614 349.374 258.352 336.096 262.868 323.877C264.677 319.555 267.149 316.086 270.211 313.705L271.138 312.984V302.848H240.861ZM299.489 360.782C299.319 360.871 299.148 360.959 298.976 361.046C299.148 360.959 299.319 360.871 299.489 360.782ZM300.015 360.501C299.932 360.546 299.849 360.591 299.766 360.635C299.849 360.591 299.932 360.546 300.015 360.501ZM300.826 360.043C300.634 360.156 300.439 360.265 300.244 360.374L300.826 360.043ZM227.942 358.166C227.878 358.168 227.813 358.171 227.748 358.172C227.813 358.171 227.878 358.168 227.942 358.166ZM228.682 358.13C228.572 358.137 228.462 358.145 228.353 358.15C228.462 358.145 228.572 358.137 228.682 358.13ZM229.299 358.086C229.186 358.095 229.074 358.105 228.962 358.113C229.074 358.105 229.186 358.095 229.299 358.086ZM229.909 358.025C229.813 358.036 229.716 358.046 229.62 358.055C229.716 358.046 229.813 358.036 229.909 358.025ZM230.532 357.948C230.442 357.96 230.351 357.972 230.261 357.983C230.351 357.972 230.442 357.96 230.532 357.948ZM231.175 357.852C231.08 357.868 230.985 357.882 230.891 357.896C230.985 357.882 231.08 357.868 231.175 357.852ZM231.774 357.747C231.731 357.755 231.688 357.762 231.645 357.77C231.688 357.762 231.731 357.755 231.774 357.747ZM234.766 356.99C234.377 357.114 233.987 357.229 233.596 357.334C233.791 357.281 233.987 357.226 234.182 357.169L234.766 356.99ZM306.361 355.929C305.983 356.28 305.598 356.62 305.205 356.951H305.204C305.597 356.62 305.982 356.28 306.36 355.929H306.361ZM207.938 349.513C207.814 349.374 207.69 349.232 207.568 349.089C207.69 349.232 207.814 349.374 207.938 349.513ZM207.469 348.972C207.376 348.863 207.285 348.753 207.194 348.642C207.285 348.753 207.376 348.863 207.469 348.972ZM207.14 348.575C207.063 348.481 206.988 348.387 206.913 348.292C206.988 348.387 207.064 348.481 207.14 348.575ZM205.915 346.939C206.11 347.221 206.308 347.499 206.513 347.772C206.308 347.499 206.11 347.221 205.915 346.939ZM205.851 346.845C205.771 346.729 205.693 346.613 205.615 346.496C205.693 346.613 205.771 346.729 205.851 346.845ZM205.563 346.418C205.484 346.296 205.405 346.174 205.327 346.05C205.405 346.174 205.484 346.296 205.563 346.418ZM204.461 344.574C204.558 344.752 204.656 344.928 204.757 345.103C204.931 345.407 205.111 345.707 205.297 346.003C205.005 345.538 204.726 345.061 204.461 344.574ZM203.504 343.462H203.89C203.974 343.635 204.06 343.809 204.147 343.98C204.06 343.809 203.974 343.636 203.89 343.462H203.504C203.078 343.462 202.634 343.46 202.179 343.456L203.504 343.462ZM309.617 343.254L310.004 343.299C309.874 343.286 309.745 343.271 309.617 343.255L309.236 343.204C309.362 343.222 309.489 343.239 309.617 343.254ZM197.851 343.169C197.798 343.16 197.746 343.153 197.694 343.144L197.328 343.076C197.499 343.11 197.674 343.14 197.851 343.169ZM252.462 336.681L252.349 337.294C252.429 336.886 252.499 336.477 252.56 336.065C252.529 336.271 252.497 336.476 252.462 336.681ZM252.814 333.444C252.813 333.485 252.811 333.526 252.809 333.567C252.811 333.526 252.813 333.485 252.814 333.444ZM252.837 332.812C252.836 332.857 252.834 332.901 252.833 332.946C252.834 332.901 252.836 332.857 252.837 332.812ZM252.833 331.425C252.834 331.469 252.836 331.513 252.837 331.556C252.836 331.513 252.834 331.469 252.833 331.425ZM252.803 330.71C252.807 330.79 252.812 330.87 252.815 330.951C252.812 330.87 252.807 330.79 252.803 330.71ZM252.734 329.778C252.718 329.594 252.699 329.41 252.679 329.226C252.699 329.41 252.718 329.594 252.734 329.778ZM252.606 328.629C252.622 328.743 252.636 328.857 252.649 328.97C252.636 328.857 252.622 328.743 252.606 328.629ZM252.462 327.685C252.427 327.48 252.39 327.276 252.351 327.071C252.39 327.276 252.427 327.48 252.462 327.685ZM259.301 328.103C259.328 327.927 259.358 327.75 259.389 327.574C259.358 327.75 259.328 327.927 259.301 328.103ZM259.44 327.291C259.462 327.178 259.483 327.065 259.506 326.953C259.483 327.065 259.462 327.178 259.44 327.291ZM252.235 326.51C252.266 326.654 252.297 326.797 252.325 326.94C252.297 326.797 252.266 326.654 252.235 326.51ZM259.673 326.186C259.627 326.381 259.584 326.576 259.543 326.771C259.584 326.576 259.626 326.381 259.672 326.186H259.673ZM252.11 325.959C252.144 326.1 252.177 326.242 252.208 326.384C252.177 326.242 252.144 326.1 252.11 325.959ZM251.706 324.45C251.743 324.573 251.78 324.696 251.814 324.819C251.78 324.696 251.743 324.573 251.706 324.45ZM251.528 323.877C251.566 323.992 251.602 324.108 251.638 324.223C251.602 324.108 251.566 323.992 251.528 323.877ZM250.535 321.3C250.847 321.971 251.127 322.666 251.368 323.39C251.398 323.478 251.426 323.568 251.455 323.656C251.426 323.567 251.397 323.479 251.367 323.39C251.126 322.667 250.847 321.971 250.535 321.301V321.3ZM201.96 221.276C181.981 221.276 165.784 237.473 165.784 257.452V259.851H176.375V257.452C176.375 243.322 187.83 231.867 201.96 231.867C216.09 231.867 227.545 243.322 227.545 257.452V259.851H238.135V257.452C238.135 237.473 221.939 221.276 201.96 221.276ZM310.04 221.276C290.061 221.276 273.864 237.473 273.864 257.452V259.851H284.454V257.452C284.454 243.322 295.91 231.867 310.04 231.867C324.17 231.867 335.625 243.322 335.625 257.452V259.851H346.215V257.452C346.215 237.473 330.019 221.276 310.04 221.276ZM186.876 233.876C187.046 233.767 187.216 233.66 187.389 233.554C187.216 233.66 187.046 233.767 186.876 233.876ZM294.956 233.876C295.126 233.767 295.297 233.66 295.469 233.554C295.297 233.66 295.126 233.767 294.956 233.876ZM187.543 233.462C187.684 233.377 187.825 233.294 187.968 233.212C187.825 233.294 187.684 233.377 187.543 233.462ZM295.623 233.462C295.764 233.377 295.906 233.294 296.048 233.212C295.906 233.294 295.764 233.377 295.623 233.462ZM188.62 232.844C188.437 232.944 188.254 233.046 188.073 233.15C188.254 233.046 188.436 232.944 188.62 232.844ZM296.7 232.844C296.517 232.944 296.334 233.046 296.153 233.15C296.334 233.046 296.517 232.944 296.7 232.844ZM198.396 229.692L197.698 229.789C197.93 229.753 198.162 229.721 198.396 229.691L199.099 229.611C198.863 229.635 198.629 229.662 198.396 229.692ZM306.476 229.692L305.778 229.789C306.01 229.753 306.242 229.721 306.476 229.691L307.179 229.611C306.943 229.635 306.709 229.662 306.476 229.692ZM204.441 344.538C204.357 344.382 204.274 344.225 204.192 344.067C204.274 344.225 204.357 344.382 204.441 344.538ZM252.764 330.1C252.772 330.201 252.777 330.302 252.784 330.403C252.777 330.302 252.772 330.201 252.764 330.1ZM252.519 328.028C252.536 328.137 252.552 328.247 252.567 328.356C252.552 328.247 252.536 328.137 252.519 328.028ZM252.519 328.028C252.501 327.914 252.481 327.799 252.462 327.685C252.481 327.799 252.501 327.914 252.519 328.028ZM251.951 325.321C251.998 325.499 252.043 325.678 252.086 325.857C252.043 325.678 251.998 325.499 251.951 325.321Z" fill="white"/>
</g>
<defs>
<linearGradient id="paint0_linear_221_609" x1="256" y1="0" x2="256" y2="512" gradientUnits="userSpaceOnUse">
<stop stop-color="white" stop-opacity="0.4"/>
<stop offset="1" stop-color="white" stop-opacity="0.1"/>
</linearGradient>
<clipPath id="clip0_221_609">
<rect width="512" height="512" fill="white"/>
</clipPath>
</defs>
</svg>
