<svg width="512" height="512" viewBox="0 0 512 512" fill="none" xmlns="http://www.w3.org/2000/svg">
<g clip-path="url(#clip0_221_609)">
<rect width="512" height="512" fill="url(#paint0_linear_221_609)"/>
<path opacity="0.7" d="M395.621 76.0899C426.981 64.0133 444.324 74.53 444.368 74.5567V254.818C444.754 260.608 445.14 266.784 445.14 272.574C445.14 273.187 445.136 273.798 445.13 274.409C439.177 266.129 428.656 261.731 418.083 264.088C403.945 267.24 395.019 281.287 398.171 295.425C401.323 309.563 415.37 318.489 429.508 315.337C434.222 314.286 438.355 312.022 441.655 308.949C434.26 347.042 415.467 381.019 388.955 407.202C382.948 383.11 358.475 367.878 334.111 373.309C309.37 378.824 293.577 403.678 299.093 428.419C301.277 438.216 306.495 446.607 313.535 452.83C295.399 458.598 276.069 461.714 256 461.714C226.877 461.714 199.311 455.159 174.69 443.445C167.399 433.774 156.481 427.235 144.453 425.423C104.877 396.517 76.9961 352.595 69.125 301.974C77.5841 305.476 87.1405 306.521 96.6816 304.394C121.423 298.878 137.216 274.024 131.7 249.283C126.185 224.542 101.331 208.75 76.5898 214.266C73.4512 214.965 70.4572 215.977 67.6318 217.26V82.9805C70.5801 79.6269 73.0369 75.8631 74.9209 71.8174C88.2494 68.4151 119.393 67.2486 164.518 106.98C191.538 91.9265 222.804 83.4346 256 83.4346C289.196 83.4346 320.462 91.9265 347.482 106.98C349.275 105.402 351.047 103.888 352.795 102.437C358.89 107.852 367.41 110.368 375.964 108.461C390.102 105.309 399.027 91.2617 395.876 77.124C395.798 76.776 395.712 76.4315 395.621 76.0899ZM240.861 313.274L241.667 313.99C245.019 316.97 247.743 320.105 249.091 324.149L249.094 324.159L249.098 324.169C252.344 333.637 249.562 343.673 242.551 349.88C243.788 345.731 244.018 341.221 243.011 336.7C239.859 322.563 225.811 313.636 211.673 316.788C197.535 319.94 188.609 333.987 191.761 348.125C194.912 362.263 208.96 371.19 223.098 368.038C224.495 367.727 225.84 367.306 227.129 366.792C231.089 366.793 235.125 366.098 239.081 364.626L239.089 364.622L239.098 364.619C246.286 361.881 252.044 356.894 255.93 350.837C259.727 356.949 265.779 361.906 272.901 364.619L272.91 364.622L272.919 364.626C290.781 371.272 310.291 362.116 316.921 344.299L318.125 341.063H314.672C312.683 341.063 310.619 341.053 308.967 340.723L308.733 340.676H306.604L305.949 342.031C300.68 352.92 288.441 358.144 276.892 353.944C264.614 349.375 258.352 336.096 262.868 323.877C264.677 319.556 267.149 316.087 270.211 313.705L271.138 312.984V302.849H240.861V313.274ZM306.361 355.93C305.983 356.28 305.598 356.621 305.205 356.951H305.204C305.597 356.621 305.982 356.28 306.36 355.93H306.361ZM309.617 343.255L310.004 343.3C309.874 343.286 309.745 343.272 309.617 343.256L309.236 343.204C309.362 343.223 309.489 343.239 309.617 343.255ZM252.462 336.682L252.349 337.294C252.429 336.887 252.499 336.477 252.56 336.065C252.529 336.271 252.497 336.477 252.462 336.682ZM250.535 321.301C250.847 321.971 251.127 322.667 251.368 323.391C251.398 323.479 251.426 323.568 251.455 323.656C251.426 323.568 251.397 323.479 251.367 323.391C251.126 322.667 250.847 321.972 250.535 321.302V321.301ZM201.96 221.276C181.981 221.276 165.784 237.473 165.784 257.452V259.852H176.375V257.452C176.375 243.322 187.83 231.867 201.96 231.867C216.09 231.867 227.545 243.322 227.545 257.452V259.852H238.135V257.452C238.135 237.474 221.939 221.277 201.96 221.276ZM338.11 196.583C332.595 171.842 307.741 156.049 283 161.564C258.259 167.08 242.466 191.934 247.981 216.675C251.313 231.621 261.704 243.298 274.862 248.988C274.211 251.704 273.864 254.537 273.864 257.452V259.852H284.454V257.452C284.454 255.603 284.652 253.8 285.024 252.063C290.858 253.115 296.978 253.056 303.092 251.693C312.5 249.596 320.611 244.7 326.752 238.08C332.185 242.772 335.625 249.71 335.625 257.452V259.852H346.215V257.452C346.215 246.211 341.087 236.166 333.043 229.531C338.585 219.871 340.703 208.215 338.11 196.583ZM198.396 229.692L197.698 229.789C197.93 229.754 198.162 229.721 198.396 229.691L199.099 229.611C198.863 229.635 198.629 229.663 198.396 229.692ZM189.466 129.824C186.314 115.686 172.266 106.76 158.128 109.912C143.99 113.064 135.064 127.111 138.216 141.249C141.367 155.387 155.415 164.314 169.553 161.162C183.691 158.01 192.617 143.962 189.466 129.824Z" fill="white"/>
<g opacity="0.9">
<mask id="mask0_221_609" style="mask-type:alpha" maskUnits="userSpaceOnUse" x="66" y="70" width="380" height="392">
<path d="M347.482 106.98C408.802 52.9885 444.305 74.5184 444.368 74.5565V254.818C444.754 260.608 445.14 266.784 445.14 272.574C445.14 377.18 360.606 461.714 256 461.714C151.394 461.714 66.8604 377.18 66.8604 272.574C66.8604 266.784 67.2458 261.379 67.6318 255.975V74.5565C67.7666 74.4748 103.26 53.0435 164.518 106.98C191.538 91.9264 222.804 83.4345 256 83.4345C289.196 83.4345 320.462 91.9264 347.482 106.98ZM240.861 302.849V313.274L241.667 313.99C245.019 316.97 247.743 320.105 249.091 324.149L249.094 324.159L249.098 324.169C253.324 336.496 247.333 349.789 235.092 354.336L235.085 354.339C223.934 358.52 211.318 353.305 206.05 342.417L205.395 341.062H203.504C201.515 341.062 199.45 341.053 197.798 340.723L194.928 340.148V343.894L195.078 344.299C201.708 362.116 221.218 371.272 239.081 364.626L239.089 364.622L239.098 364.619C246.286 361.881 252.044 356.893 255.93 350.837C259.727 356.949 265.779 361.906 272.901 364.619L272.91 364.622L272.919 364.626C290.782 371.272 310.291 362.116 316.921 344.299L318.125 341.062H314.672C312.683 341.062 310.619 341.053 308.967 340.723L308.733 340.676H306.604L305.949 342.031C300.68 352.92 288.441 358.144 276.892 353.944C264.614 349.375 258.352 336.096 262.868 323.877C264.677 319.555 267.149 316.087 270.211 313.705L271.138 312.984V302.849H240.861ZM299.489 360.782C299.319 360.871 299.148 360.96 298.976 361.046C299.148 360.96 299.319 360.871 299.489 360.782ZM300.015 360.501C299.932 360.546 299.849 360.591 299.766 360.636C299.849 360.591 299.932 360.546 300.015 360.501ZM300.826 360.043C300.634 360.156 300.439 360.265 300.244 360.374L300.826 360.043ZM227.942 358.166C227.878 358.168 227.813 358.171 227.748 358.173C227.813 358.171 227.878 358.168 227.942 358.166ZM228.682 358.131C228.572 358.138 228.462 358.145 228.353 358.15C228.462 358.145 228.572 358.138 228.682 358.131ZM229.299 358.086C229.186 358.096 229.074 358.105 228.962 358.113C229.074 358.105 229.186 358.096 229.299 358.086ZM229.909 358.025C229.813 358.036 229.716 358.046 229.62 358.056C229.716 358.046 229.813 358.036 229.909 358.025ZM230.532 357.948C230.442 357.961 230.351 357.972 230.261 357.983C230.351 357.972 230.442 357.961 230.532 357.948ZM231.175 357.852C231.08 357.868 230.985 357.882 230.891 357.896C230.985 357.882 231.08 357.868 231.175 357.852ZM231.774 357.747C231.731 357.755 231.688 357.762 231.645 357.77C231.688 357.762 231.731 357.755 231.774 357.747ZM234.766 356.99C234.377 357.115 233.987 357.229 233.596 357.334C233.791 357.282 233.987 357.226 234.182 357.169L234.766 356.99ZM306.361 355.93C305.983 356.28 305.598 356.621 305.205 356.951H305.204C305.597 356.621 305.982 356.28 306.36 355.93H306.361ZM207.938 349.514C207.814 349.374 207.69 349.232 207.568 349.09C207.69 349.232 207.814 349.374 207.938 349.514ZM207.469 348.973C207.376 348.863 207.285 348.753 207.194 348.642C207.285 348.753 207.376 348.863 207.469 348.973ZM207.14 348.575C207.063 348.481 206.988 348.387 206.913 348.292C206.988 348.387 207.064 348.481 207.14 348.575ZM205.915 346.939C206.11 347.221 206.308 347.5 206.513 347.772C206.308 347.5 206.11 347.221 205.915 346.939ZM205.851 346.846C205.771 346.73 205.693 346.613 205.615 346.496C205.693 346.613 205.771 346.73 205.851 346.846ZM205.563 346.418C205.484 346.296 205.405 346.174 205.327 346.051C205.405 346.174 205.484 346.296 205.563 346.418ZM204.461 344.574C204.558 344.752 204.656 344.928 204.757 345.103C204.931 345.408 205.111 345.708 205.297 346.003C205.005 345.538 204.726 345.062 204.461 344.574ZM203.504 343.462H203.89C203.974 343.636 204.06 343.809 204.147 343.98C204.06 343.809 203.974 343.637 203.89 343.463H203.504C203.078 343.463 202.634 343.461 202.179 343.456L203.504 343.462ZM309.617 343.255L310.004 343.3C309.874 343.286 309.745 343.272 309.617 343.256L309.236 343.204C309.362 343.222 309.489 343.239 309.617 343.255ZM197.851 343.169C197.798 343.16 197.746 343.153 197.694 343.144L197.328 343.076C197.499 343.11 197.674 343.14 197.851 343.169ZM252.462 336.682L252.349 337.294C252.429 336.887 252.499 336.477 252.56 336.065C252.529 336.271 252.497 336.477 252.462 336.682ZM252.814 333.444C252.813 333.485 252.811 333.526 252.809 333.567C252.811 333.526 252.813 333.485 252.814 333.444ZM252.837 332.812C252.836 332.857 252.834 332.902 252.833 332.946C252.834 332.902 252.836 332.857 252.837 332.812ZM252.833 331.426C252.834 331.469 252.836 331.513 252.837 331.557C252.836 331.513 252.834 331.469 252.833 331.426ZM252.803 330.71C252.807 330.79 252.812 330.871 252.815 330.951C252.812 330.871 252.807 330.79 252.803 330.71ZM252.734 329.778C252.718 329.594 252.699 329.41 252.679 329.226C252.699 329.41 252.718 329.594 252.734 329.778ZM252.606 328.63C252.622 328.743 252.636 328.857 252.649 328.971C252.636 328.857 252.622 328.743 252.606 328.63ZM252.462 327.685C252.427 327.481 252.39 327.276 252.351 327.071C252.39 327.276 252.427 327.481 252.462 327.685ZM259.301 328.103C259.328 327.927 259.358 327.751 259.389 327.574C259.358 327.751 259.328 327.927 259.301 328.103ZM259.44 327.291C259.462 327.178 259.483 327.066 259.506 326.953C259.483 327.066 259.462 327.178 259.44 327.291ZM252.235 326.511C252.266 326.654 252.297 326.797 252.325 326.94C252.297 326.797 252.266 326.654 252.235 326.511ZM259.673 326.186C259.627 326.381 259.584 326.576 259.543 326.771C259.584 326.576 259.626 326.381 259.672 326.186H259.673ZM252.11 325.959C252.144 326.101 252.177 326.243 252.208 326.385C252.177 326.243 252.144 326.101 252.11 325.959ZM251.706 324.45C251.743 324.573 251.78 324.696 251.814 324.819C251.78 324.696 251.743 324.573 251.706 324.45ZM251.528 323.877C251.566 323.992 251.602 324.108 251.638 324.224C251.602 324.108 251.566 323.992 251.528 323.877ZM250.535 321.301C250.847 321.971 251.127 322.667 251.368 323.391C251.398 323.479 251.426 323.568 251.455 323.656C251.426 323.568 251.397 323.479 251.367 323.391C251.126 322.667 250.847 321.972 250.535 321.302V321.301ZM201.96 221.276C181.981 221.276 165.784 237.473 165.784 257.452V259.851H176.375V257.452C176.375 243.322 187.83 231.867 201.96 231.867C216.09 231.867 227.545 243.322 227.545 257.452V259.851H238.135V257.452C238.135 237.473 221.939 221.276 201.96 221.276ZM310.04 221.276C290.061 221.276 273.864 237.473 273.864 257.452V259.851H284.454V257.452C284.454 243.322 295.91 231.867 310.04 231.867C324.17 231.867 335.625 243.322 335.625 257.452V259.851H346.215V257.452C346.215 237.473 330.019 221.277 310.04 221.276ZM186.876 233.876C187.046 233.767 187.216 233.66 187.389 233.555C187.216 233.66 187.046 233.767 186.876 233.876ZM294.956 233.876C295.126 233.767 295.297 233.66 295.469 233.555C295.297 233.66 295.126 233.767 294.956 233.876ZM187.543 233.462C187.684 233.377 187.825 233.294 187.968 233.212C187.825 233.294 187.684 233.377 187.543 233.462ZM295.623 233.462C295.764 233.377 295.906 233.294 296.048 233.212C295.906 233.294 295.764 233.377 295.623 233.462ZM188.62 232.845C188.436 232.944 188.254 233.047 188.073 233.15C188.254 233.047 188.436 232.944 188.62 232.845ZM296.7 232.845C296.517 232.944 296.334 233.047 296.153 233.15C296.334 233.047 296.517 232.944 296.7 232.845ZM198.396 229.692L197.698 229.789C197.93 229.754 198.162 229.721 198.396 229.691L199.099 229.611C198.863 229.635 198.629 229.663 198.396 229.692ZM306.476 229.692L305.778 229.789C306.01 229.754 306.242 229.721 306.476 229.691L307.179 229.611C306.943 229.635 306.709 229.663 306.476 229.692ZM204.441 344.538C204.357 344.382 204.274 344.225 204.192 344.067C204.274 344.225 204.357 344.382 204.441 344.538ZM252.764 330.1C252.772 330.201 252.777 330.302 252.784 330.403C252.777 330.302 252.772 330.201 252.764 330.1ZM252.519 328.028C252.536 328.138 252.552 328.247 252.567 328.356C252.552 328.247 252.536 328.138 252.519 328.028ZM252.519 328.028C252.501 327.914 252.481 327.8 252.462 327.685C252.481 327.8 252.501 327.914 252.519 328.028ZM251.951 325.321C251.998 325.5 252.043 325.679 252.086 325.857C252.043 325.679 251.998 325.5 251.951 325.321Z" fill="white"/>
</mask>
<g mask="url(#mask0_221_609)">
<path d="M354.203 463.437C329.462 468.953 304.608 453.16 299.092 428.419C293.577 403.678 309.37 378.824 334.111 373.309C358.852 367.793 383.706 383.586 389.221 408.327C394.737 433.068 378.944 457.922 354.203 463.437Z" fill="white"/>
<path d="M480.619 527.081C466.481 530.233 452.433 521.307 449.282 507.169C446.13 493.031 455.056 478.983 469.194 475.832C483.332 472.68 497.38 481.606 500.531 495.744C503.683 509.882 494.757 523.93 480.619 527.081Z" fill="white"/>
<path d="M249.548 44.8171C224.806 50.3325 199.953 34.5399 194.437 9.79866C188.922 -14.9426 204.715 -39.7962 229.456 -45.3116C254.197 -50.827 279.051 -35.0344 284.566 -10.2932C290.082 14.4481 274.289 39.3017 249.548 44.8171Z" fill="white"/>
<path d="M375.964 108.461C361.826 111.613 347.778 102.686 344.626 88.5486C341.475 74.4107 350.401 60.363 364.539 57.2113C378.677 54.0597 392.724 62.986 395.876 77.1238C399.028 91.2617 390.102 105.309 375.964 108.461Z" fill="white"/>
<path d="M407.747 670.314C383.006 675.829 358.152 660.036 352.637 635.295C347.121 610.554 362.914 585.7 387.655 580.185C412.396 574.669 437.25 590.462 442.765 615.203C448.281 639.944 432.488 664.798 407.747 670.314Z" fill="white"/>
<path d="M534.163 733.957C520.025 737.109 505.978 728.183 502.826 714.045C499.674 699.907 508.601 685.859 522.738 682.708C536.876 679.556 550.924 688.482 554.076 702.62C557.227 716.758 548.301 730.806 534.163 733.957Z" fill="white"/>
<path d="M303.092 251.693C278.351 257.209 253.497 241.416 247.982 216.675C242.466 191.934 258.259 167.08 283 161.565C307.741 156.049 332.595 171.842 338.11 196.583C343.626 221.324 327.833 246.178 303.092 251.693Z" fill="white"/>
<path d="M429.508 315.337C415.37 318.489 401.322 309.563 398.171 295.425C395.019 281.287 403.945 267.239 418.083 264.088C432.221 260.936 446.269 269.862 449.42 284C452.572 298.138 443.646 312.186 429.508 315.337Z" fill="white"/>
<path d="M147.791 516.138C123.05 521.653 98.1965 505.861 92.6811 481.12C87.1657 456.378 102.958 431.525 127.7 426.009C152.441 420.494 177.295 436.287 182.81 461.028C188.325 485.769 172.533 510.623 147.791 516.138Z" fill="white"/>
<path d="M274.208 579.782C260.07 582.934 246.022 574.007 242.87 559.869C239.719 545.732 248.645 531.684 262.783 528.532C276.921 525.381 290.968 534.307 294.12 548.445C297.272 562.583 288.345 576.63 274.208 579.782Z" fill="white"/>
<path d="M43.1369 97.5178C18.3957 103.033 -6.45797 87.2406 -11.9734 62.4994C-17.4888 37.7581 -1.69613 12.9045 23.0451 7.38909C47.7863 1.87368 72.64 17.6663 78.1554 42.4076C83.6708 67.1488 67.8782 92.0024 43.1369 97.5178Z" fill="white"/>
<path d="M169.553 161.162C155.415 164.313 141.367 155.387 138.216 141.249C135.064 127.111 143.99 113.064 158.128 109.912C172.266 106.76 186.314 115.687 189.465 129.825C192.617 143.962 183.691 158.01 169.553 161.162Z" fill="white"/>
<path d="M201.336 723.014C176.595 728.53 151.741 712.737 146.226 687.996C140.711 663.255 156.503 638.401 181.245 632.885C205.986 627.37 230.839 643.163 236.355 667.904C241.87 692.645 226.078 717.499 201.336 723.014Z" fill="white"/>
<path d="M327.752 786.658C313.615 789.81 299.567 780.884 296.415 766.746C293.264 752.608 302.19 738.56 316.328 735.408C330.465 732.257 344.513 741.183 347.665 755.321C350.817 769.459 341.89 783.506 327.752 786.658Z" fill="white"/>
<path d="M96.6818 304.394C71.9406 309.909 47.0869 294.117 41.5715 269.376C36.0561 244.634 51.8488 219.781 76.59 214.265C101.331 208.75 126.185 224.543 131.7 249.284C137.216 274.025 121.423 298.879 96.6818 304.394Z" fill="white"/>
<path d="M223.098 368.038C208.96 371.19 194.912 362.263 191.761 348.126C188.609 333.988 197.535 319.94 211.673 316.788C225.811 313.637 239.859 322.563 243.01 336.701C246.162 350.839 237.236 364.886 223.098 368.038Z" fill="white"/>
</g>
</g>
</g>
<defs>
<linearGradient id="paint0_linear_221_609" x1="256" y1="0" x2="256" y2="512" gradientUnits="userSpaceOnUse">
<stop stop-color="white" stop-opacity="0.4"/>
<stop offset="1" stop-color="white" stop-opacity="0.1"/>
</linearGradient>
<clipPath id="clip0_221_609">
<rect width="512" height="512" fill="white"/>
</clipPath>
</defs>
</svg>
