<svg width="512" height="512" viewBox="0 0 512 512" fill="none" xmlns="http://www.w3.org/2000/svg">
<g clip-path="url(#clip0_221_609)">
<rect width="512" height="512" fill="url(#paint0_linear_221_609)"/>
<path opacity="0.8" d="M347.482 96.9801C408.802 42.9882 444.305 64.5181 444.368 64.5562V244.818C444.754 250.608 445.14 256.784 445.14 262.574C445.14 367.18 360.606 451.713 256 451.713C151.394 451.713 66.8604 367.18 66.8604 262.574C66.8604 256.784 67.2458 251.379 67.6318 245.975V64.5562C67.7666 64.4745 103.26 43.0432 164.518 96.9801C191.538 81.9261 222.804 73.4342 256 73.4342C289.196 73.4342 320.462 81.9261 347.482 96.9801ZM240.861 292.848V303.274L241.667 303.99C245.019 306.97 247.743 310.104 249.091 314.149L249.094 314.159L249.098 314.169C253.324 326.496 247.333 339.789 235.092 344.336L235.085 344.338C223.934 348.52 211.318 343.305 206.05 332.417L205.395 331.062H203.504C201.515 331.062 199.45 331.053 197.798 330.722L194.928 330.148V333.894L195.078 334.298C201.708 352.116 221.218 361.272 239.081 354.626L239.089 354.622L239.098 354.619C246.286 351.88 252.044 346.893 255.93 340.837C259.727 346.949 265.779 351.905 272.901 354.619L272.91 354.622L272.919 354.626C290.782 361.272 310.291 352.116 316.921 334.298L318.125 331.062H314.672C312.683 331.062 310.619 331.053 308.967 330.722L308.733 330.675H306.604L305.949 332.031C300.68 342.919 288.441 348.144 276.892 343.944C264.614 339.374 258.352 326.096 262.868 313.877C264.677 309.555 267.149 306.086 270.211 303.705L271.138 302.984V292.848H240.861ZM299.489 350.782C299.319 350.871 299.148 350.959 298.976 351.045C299.148 350.959 299.319 350.871 299.489 350.782ZM300.015 350.501C299.932 350.546 299.849 350.591 299.766 350.635C299.849 350.591 299.932 350.546 300.015 350.501ZM300.826 350.043C300.634 350.156 300.439 350.265 300.244 350.374L300.826 350.043ZM227.942 348.166C227.878 348.168 227.813 348.171 227.748 348.172C227.813 348.171 227.878 348.168 227.942 348.166ZM228.682 348.13C228.572 348.137 228.462 348.145 228.353 348.15C228.462 348.145 228.572 348.137 228.682 348.13ZM229.299 348.086C229.186 348.095 229.074 348.105 228.962 348.113C229.074 348.105 229.186 348.095 229.299 348.086ZM229.909 348.025C229.813 348.036 229.716 348.046 229.62 348.055C229.716 348.046 229.813 348.036 229.909 348.025ZM230.532 347.948C230.442 347.96 230.351 347.972 230.261 347.983C230.351 347.972 230.442 347.96 230.532 347.948ZM231.175 347.852C231.08 347.868 230.985 347.882 230.891 347.896C230.985 347.882 231.08 347.868 231.175 347.852ZM231.774 347.747C231.731 347.755 231.688 347.762 231.645 347.77C231.688 347.762 231.731 347.755 231.774 347.747ZM234.766 346.99C234.377 347.114 233.987 347.229 233.596 347.334C233.791 347.281 233.987 347.226 234.182 347.169L234.766 346.99ZM306.361 345.929C305.983 346.28 305.598 346.62 305.205 346.951H305.204C305.597 346.62 305.982 346.28 306.36 345.929H306.361ZM207.938 339.513C207.814 339.374 207.69 339.232 207.568 339.089C207.69 339.232 207.814 339.374 207.938 339.513ZM207.469 338.972C207.376 338.863 207.285 338.753 207.194 338.642C207.285 338.753 207.376 338.863 207.469 338.972ZM207.14 338.575C207.063 338.481 206.988 338.387 206.913 338.292C206.988 338.387 207.064 338.481 207.14 338.575ZM205.915 336.939C206.11 337.221 206.308 337.499 206.513 337.772C206.308 337.499 206.11 337.221 205.915 336.939ZM205.851 336.845C205.771 336.729 205.693 336.613 205.615 336.496C205.693 336.613 205.771 336.729 205.851 336.845ZM205.563 336.418C205.484 336.296 205.405 336.174 205.327 336.05C205.405 336.174 205.484 336.296 205.563 336.418ZM204.461 334.574C204.558 334.752 204.656 334.928 204.757 335.103C204.931 335.407 205.111 335.707 205.297 336.003C205.005 335.538 204.726 335.061 204.461 334.574ZM203.504 333.462H203.89C203.974 333.635 204.06 333.809 204.147 333.98C204.06 333.809 203.974 333.636 203.89 333.462H203.504C203.078 333.462 202.634 333.46 202.179 333.456L203.504 333.462ZM309.617 333.254L310.004 333.299C309.874 333.286 309.745 333.271 309.617 333.255L309.236 333.204C309.362 333.222 309.489 333.239 309.617 333.254ZM197.851 333.169C197.798 333.16 197.746 333.153 197.694 333.144L197.328 333.076C197.499 333.11 197.674 333.14 197.851 333.169ZM252.462 326.681L252.349 327.294C252.429 326.886 252.499 326.477 252.56 326.065C252.529 326.271 252.497 326.476 252.462 326.681ZM252.814 323.444C252.813 323.485 252.811 323.526 252.809 323.567C252.811 323.526 252.813 323.485 252.814 323.444ZM252.837 322.812C252.836 322.857 252.834 322.901 252.833 322.946C252.834 322.901 252.836 322.857 252.837 322.812ZM252.833 321.425C252.834 321.469 252.836 321.513 252.837 321.556C252.836 321.513 252.834 321.469 252.833 321.425ZM252.803 320.71C252.807 320.79 252.812 320.87 252.815 320.951C252.812 320.87 252.807 320.79 252.803 320.71ZM252.734 319.778C252.718 319.594 252.699 319.41 252.679 319.226C252.699 319.41 252.718 319.594 252.734 319.778ZM252.606 318.629C252.622 318.743 252.636 318.857 252.649 318.97C252.636 318.857 252.622 318.743 252.606 318.629ZM252.462 317.685C252.427 317.48 252.39 317.276 252.351 317.071C252.39 317.276 252.427 317.48 252.462 317.685ZM259.301 318.103C259.328 317.927 259.358 317.75 259.389 317.574C259.358 317.75 259.328 317.927 259.301 318.103ZM259.44 317.291C259.462 317.178 259.483 317.065 259.506 316.953C259.483 317.065 259.462 317.178 259.44 317.291ZM252.235 316.51C252.266 316.654 252.297 316.797 252.325 316.94C252.297 316.797 252.266 316.654 252.235 316.51ZM259.673 316.186C259.627 316.381 259.584 316.576 259.543 316.771C259.584 316.576 259.626 316.381 259.672 316.186H259.673ZM252.11 315.959C252.144 316.1 252.177 316.242 252.208 316.384C252.177 316.242 252.144 316.1 252.11 315.959ZM251.706 314.45C251.743 314.573 251.78 314.696 251.814 314.819C251.78 314.696 251.743 314.573 251.706 314.45ZM251.528 313.877C251.566 313.992 251.602 314.108 251.638 314.223C251.602 314.108 251.566 313.992 251.528 313.877ZM250.535 311.3C250.847 311.971 251.127 312.666 251.368 313.39C251.398 313.478 251.426 313.568 251.455 313.656C251.426 313.567 251.397 313.479 251.367 313.39C251.126 312.667 250.847 311.971 250.535 311.301V311.3ZM201.96 211.276C181.981 211.276 165.784 227.473 165.784 247.452V249.851H176.375V247.452C176.375 233.322 187.83 221.867 201.96 221.867C216.09 221.867 227.545 233.322 227.545 247.452V249.851H238.135V247.452C238.135 227.473 221.939 211.276 201.96 211.276ZM310.04 211.276C290.061 211.276 273.864 227.473 273.864 247.452V249.851H284.454V247.452C284.454 233.322 295.91 221.867 310.04 221.867C324.17 221.867 335.625 233.322 335.625 247.452V249.851H346.215V247.452C346.215 227.473 330.019 211.276 310.04 211.276ZM186.876 223.876C187.046 223.767 187.216 223.66 187.389 223.554C187.216 223.66 187.046 223.767 186.876 223.876ZM294.956 223.876C295.126 223.767 295.297 223.66 295.469 223.554C295.297 223.66 295.126 223.767 294.956 223.876ZM187.543 223.462C187.684 223.377 187.825 223.294 187.968 223.212C187.825 223.294 187.684 223.377 187.543 223.462ZM295.623 223.462C295.764 223.377 295.906 223.294 296.048 223.212C295.906 223.294 295.764 223.377 295.623 223.462ZM188.62 222.844C188.436 222.944 188.254 223.046 188.073 223.15C188.254 223.046 188.436 222.944 188.62 222.844ZM296.7 222.844C296.517 222.944 296.334 223.046 296.153 223.15C296.334 223.046 296.517 222.944 296.7 222.844ZM198.396 219.692L197.698 219.789C197.93 219.753 198.162 219.721 198.396 219.691L199.099 219.611C198.863 219.635 198.629 219.662 198.396 219.692ZM306.476 219.692L305.778 219.789C306.01 219.753 306.242 219.721 306.476 219.691L307.179 219.611C306.943 219.635 306.709 219.662 306.476 219.692ZM204.441 334.538C204.357 334.382 204.274 334.225 204.192 334.067C204.274 334.225 204.357 334.382 204.441 334.538ZM252.764 320.1C252.772 320.201 252.777 320.302 252.784 320.403C252.777 320.302 252.772 320.201 252.764 320.1ZM252.519 318.028C252.536 318.137 252.552 318.247 252.567 318.356C252.552 318.247 252.536 318.137 252.519 318.028ZM252.519 318.028C252.501 317.914 252.481 317.799 252.462 317.685C252.481 317.799 252.501 317.914 252.519 318.028ZM251.951 315.321C251.998 315.499 252.043 315.678 252.086 315.857C252.043 315.678 251.998 315.499 251.951 315.321Z" fill="white"/>
</g>
<defs>
<linearGradient id="paint0_linear_221_609" x1="256" y1="0" x2="256" y2="512" gradientUnits="userSpaceOnUse">
<stop stop-color="white" stop-opacity="0.4"/>
<stop offset="1" stop-color="white" stop-opacity="0.1"/>
</linearGradient>
<clipPath id="clip0_221_609">
<rect width="512" height="512" fill="white"/>
</clipPath>
</defs>
</svg>
