<svg width="925" height="926" viewBox="0 0 925 926" fill="none" xmlns="http://www.w3.org/2000/svg">
<path d="M924.398 925.102H0.0379639V0.741211H924.398V925.102ZM253.752 627.759C221.722 619.757 197.662 627.614 171.662 647.958C159.249 657.671 145.369 678.567 145.349 678.599C145.282 678.636 121.522 692.016 115.612 706.892C109.155 723.145 119.093 733.998 119.922 751.468C120.982 773.819 119.581 790.873 119.048 808.761C118.575 824.595 102.808 833.164 115.367 849.158C136.841 866.278 154.393 846.481 177.036 854.993C190.107 859.908 178.552 876.541 208.219 872.497C217.231 871.268 220.922 861.585 230.163 856.278C242.164 849.386 254.703 851.718 263.184 843.414C280.496 826.465 281.092 820.838 292.909 806.653C305.207 791.891 314.48 785.431 324.972 769.334C340.128 746.08 351.514 731.246 351.737 703.49C351.853 689.081 353.388 678.905 344.957 667.219C333.176 650.891 314.251 659.704 295.826 651.586C278.546 643.973 272.071 632.335 253.752 627.759ZM691.162 632.3C620.604 651.906 644.166 589.431 607.156 594.865C584.792 598.15 575.255 623.553 575.217 623.656C575.217 623.656 561.457 640.216 543.277 652.449C535.988 657.354 525.763 657.008 525.659 657.004C525.659 657.004 513.046 654.793 508.042 661.56C485.238 692.403 473.073 728.076 473.04 728.175C473.04 728.175 451.142 765.162 468.244 798.457C489.443 833.948 498.137 826.676 522.058 835.63C555.224 848.044 568.982 826.556 612.731 836.835C613.152 836.934 613.547 836.527 613.547 836.527L614.36 836.22C657.411 843.006 666.772 844.748 700.355 850.212C733.938 855.676 749.191 885.884 786.349 864.203C830.416 838.492 808.111 811.371 823.683 778.255C839.69 744.218 864.607 738.718 867.319 692.393C868.595 670.604 843.756 676.247 830.321 663.924C818.239 652.841 819.858 644.998 801.681 633.228C791.343 626.534 776.697 627.057 776.567 627.062C776.567 627.062 764.354 624.367 752.103 621.784C716.18 614.213 691.243 632.241 691.162 632.3ZM598.044 271.236C571.017 266.4 568.149 273.724 549.363 277.539C521.17 283.264 487.778 271.09 479.16 299.865C468.44 335.662 506.195 355.013 518.258 392.308C528.59 424.256 477.04 473.744 538.533 475.863C568.201 465.268 611.261 506.128 611.316 506.181C611.479 506.306 668.055 549.782 690.581 520.361C709.7 495.391 681.134 459.731 676.789 420.67C672.457 381.726 688.682 375.402 668.354 320.688C658.256 293.507 645.251 304.866 630.587 294.529C617.813 285.525 612.915 273.896 598.044 271.236ZM114.698 194.197C114.698 194.197 54.6495 161.036 23.7469 192.537C-2.44419 219.234 25.7313 249.274 25.0067 285.621C24.2726 322.44 4.26015 330.608 19.9325 379.784C27.718 404.214 44.6462 391.402 60.3612 399.094C73.9772 405.759 80.2117 413.516 95.0848 416.45C117.924 420.956 130.796 409.496 153.191 403.142C187.565 393.389 224.541 400.071 238.972 371.315C256.923 335.543 215.494 322.376 206.911 288.94C199.383 259.611 267.51 205.04 195.621 212.229C159.262 226.76 114.913 194.354 114.698 194.197ZM821.13 44.4316C781.765 22.8566 769.258 61.9101 735.72 72.1484C703.08 82.1118 678.575 61.7752 651.719 96.2334C629.454 124.799 655.115 140.263 657.993 168.409C660.877 196.613 656.305 205.665 666.476 240.509C669.521 250.937 684.066 253.278 684.098 253.283C684.161 253.326 692.386 258.819 700.932 263.734C708.379 268.016 716.998 269.817 717.017 269.821C717.094 269.84 727.433 272.357 733.106 275.908C750.468 286.777 752.055 324.818 752.055 324.818C752.041 324.922 747.046 363.151 771.004 373.728C797.351 385.359 848.113 432.395 873.72 399.874C887.962 381.786 866.72 366.118 881.579 341.448C895.793 317.851 868.383 287.986 868.28 287.874C868.249 287.796 857.899 261.703 854.982 234.3C854.365 228.5 861.509 224.638 861.549 224.616C861.597 224.591 869.211 220.655 868.116 214.929C859.939 172.166 852.764 164.118 843.714 131.338C834.382 97.5364 860.493 66.0065 821.13 44.4316ZM426.391 48.7305C355.78 63.2148 325.001 66.836 326.811 108.479C328.621 150.121 285.169 200.815 341.296 209.868C397.422 218.921 433.634 180.9 469.845 206.247C506.055 231.595 516.919 262.374 533.214 224.353C549.509 186.331 571.235 148.309 535.024 112.099C506.056 83.1302 450.532 57.7834 426.391 48.7305Z" fill="white"/>
</svg>
