<svg width="2060" height="2120" viewBox="0 0 2060 2120" fill="none" xmlns="http://www.w3.org/2000/svg">
<path d="M488.53 96.2661L686.889 706.751L167.579 329.451H412.764L488.53 96.2661Z" fill="white"/>
<path d="M1030.14 706.751L954.378 473.566L907.552 329.451L831.786 96.2661L1030.14 240.382L1228.5 96.2661L1152.74 329.451L1105.91 473.566L1030.14 706.751Z" fill="white"/>
<path d="M1571.76 96.2661L1647.52 329.451H1892.71L1373.4 706.751L1571.76 96.2661Z" fill="white"/>
<path d="M653.648 1027.94L54.3812 1257.97L187.918 1052.34L33.6187 861.799L653.648 1027.94Z" fill="white"/>
<path d="M2026.67 861.799L1872.37 1052.34L2005.91 1257.97L1406.64 1027.93L2026.67 861.799Z" fill="white"/>
<path d="M488.53 2023.5L412.764 1790.32H167.579L365.938 1646.2L488.53 1557.14L686.889 1413.02L611.123 1646.2L564.297 1790.32L488.53 2023.5Z" fill="white"/>
<path d="M1030.14 1413.02L1105.91 1646.2L1152.74 1790.32L1228.5 2023.5L1030.14 1879.39L831.786 2023.5L907.552 1790.32L954.378 1646.2L1030.14 1413.02Z" fill="white"/>
<path d="M1571.76 2023.5L1495.99 1790.32L1449.17 1646.2L1373.4 1413.02L1571.76 1557.14L1694.35 1646.2L1892.71 1790.32H1647.52L1571.76 2023.5Z" fill="white"/>
</svg>
