<svg width="713" height="713" viewBox="0 0 713 713" fill="none" xmlns="http://www.w3.org/2000/svg">
<path d="M75.4512 712.301H5.44141L0.704102 707.563V637.553L75.4512 712.301ZM243.478 712.301H173.467L0.704102 539.537V469.527L243.478 712.301ZM411.502 712.301H341.492L0.704102 371.513V301.502L411.502 712.301ZM579.527 712.301H509.518L0.704102 203.487V133.478L579.527 712.301ZM712.548 677.295V707.563L707.811 712.301H677.543L0.704102 35.4619V5.19336L5.44043 0.457031H35.71L712.548 677.295ZM712.548 509.271V579.279L133.725 0.457031H203.734L712.548 509.271ZM712.548 341.243V411.254L301.751 0.457031H371.761L712.548 341.243ZM712.548 173.219V243.229L469.775 0.457031H539.786L712.548 173.219ZM712.548 5.19336V75.2041L637.801 0.457031H707.811L712.548 5.19336Z" fill="white"/>
</svg>
