<svg width="1516" height="1149" viewBox="0 0 1516 1149" fill="none" xmlns="http://www.w3.org/2000/svg">
<path d="M5.04202 1.02826C60.7312 33.7246 95.4264 68.4581 110.43 107.229C122.575 138.532 120.559 169.774 111.798 200.54C103.039 231.301 87.4656 261.817 72.2422 291.684C57.2333 321.16 42.0361 350.99 33.4317 380.82C24.8275 410.65 22.8931 440.235 34.1358 469.241L34.1934 469.391L34.2032 469.435C48.1339 505.184 80.7073 537.937 134.464 569.521L136.007 570.428L136.016 570.405L137.623 571.349C193.312 604.045 228.007 638.778 243.011 677.55C255.156 708.852 253.14 740.095 244.379 770.861C235.62 801.622 220.047 832.137 204.823 862.004C189.814 891.48 174.617 921.311 166.013 951.141C157.408 980.97 155.474 1010.56 166.717 1039.56L166.774 1039.71L166.784 1039.75C180.715 1075.5 213.288 1108.26 267.045 1139.84L268.672 1140.8L265.897 1148.2L264.29 1147.26C208.6 1114.56 173.904 1079.82 158.901 1041.05C146.776 1009.73 148.801 978.471 157.561 947.699C166.318 916.932 181.88 886.416 197.078 856.549L202.702 845.478C215.784 819.614 228.361 793.512 235.89 767.411C244.494 737.582 246.428 707.997 235.186 678.991L234.521 677.314C220.262 642.161 187.855 609.895 134.868 578.763L133.324 577.855L133.316 577.879L131.709 576.935C76.0191 544.239 41.3232 509.504 26.3203 470.732C14.195 439.405 16.2203 408.15 24.9795 377.378C33.7372 346.611 49.2985 316.095 64.4971 286.228L70.1211 275.158C83.2026 249.294 95.7798 223.191 103.309 197.09C111.913 167.261 113.847 137.676 102.605 108.67L101.939 106.994C87.6812 71.8407 55.2737 39.5736 2.28714 8.44135L0.660187 7.48627L3.4346 0.0839233L5.04202 1.02826ZM51.252 1.02826C106.941 33.7246 141.636 68.4581 156.64 107.229C168.785 138.532 166.769 169.774 158.008 200.54C149.248 231.301 133.676 261.817 118.452 291.684C103.443 321.16 88.246 350.99 79.6416 380.82C71.0374 410.65 69.103 440.235 80.3457 469.241L80.4034 469.391L80.4131 469.435C94.3439 505.184 126.917 537.937 180.674 569.521L182.217 570.428L182.226 570.405L183.833 571.349C239.522 604.045 274.217 638.778 289.221 677.55C301.366 708.852 299.35 740.095 290.589 770.861C281.83 801.622 266.256 832.137 251.033 862.004C236.024 891.48 220.827 921.311 212.223 951.141C203.618 980.97 201.684 1010.56 212.927 1039.56L212.984 1039.71L212.994 1039.75C226.925 1075.5 259.498 1108.26 313.255 1139.84L314.882 1140.8L312.107 1148.2L310.5 1147.26C254.81 1114.56 220.114 1079.82 205.111 1041.05C192.986 1009.72 195.011 978.471 203.771 947.699C212.528 916.932 228.089 886.416 243.288 856.549L248.912 845.478C261.993 819.614 274.57 793.512 282.099 767.411C290.703 737.582 292.638 707.997 281.396 678.991L280.73 677.314C266.471 642.161 234.064 609.895 181.078 578.763L179.534 577.855L179.526 577.879L177.919 576.935C122.229 544.239 87.5332 509.504 72.5303 470.732C60.405 439.405 62.4303 408.15 71.1895 377.378C79.9472 346.611 95.5085 316.095 110.707 286.228L116.331 275.158C129.412 249.294 141.99 223.191 149.519 197.09C158.123 167.261 160.057 137.676 148.814 108.67L148.148 106.994C133.89 71.8407 101.484 39.5736 48.4971 8.44135L46.8701 7.48627L49.6446 0.0839233L51.252 1.02826ZM97.4619 1.02826C153.151 33.7246 187.846 68.4582 202.85 107.229C214.995 138.532 212.979 169.774 204.218 200.54C195.458 231.301 179.885 261.817 164.662 291.684C149.653 321.16 134.456 350.99 125.852 380.82C117.247 410.65 115.312 440.235 126.555 469.241L126.612 469.391L126.623 469.435C140.554 505.184 173.127 537.937 226.884 569.521L228.426 570.428L228.435 570.405L230.043 571.349C285.732 604.045 320.427 638.778 335.431 677.55C347.576 708.852 345.56 740.095 336.799 770.861C328.04 801.622 312.466 832.137 297.243 862.004C282.234 891.48 267.037 921.311 258.433 951.141C249.828 980.97 247.893 1010.56 259.136 1039.56L259.193 1039.71L259.203 1039.75C273.134 1075.5 305.708 1108.26 359.465 1139.84L361.091 1140.8L358.317 1148.2L356.709 1147.26C301.019 1114.56 266.324 1079.82 251.321 1041.05C239.196 1009.73 241.22 978.471 249.98 947.699C258.737 916.932 274.298 886.416 289.497 856.549L295.121 845.478C308.202 819.614 320.78 793.512 328.309 767.411C336.913 737.582 338.848 707.997 327.605 678.991L326.939 677.314C312.681 642.161 280.274 609.895 227.287 578.763L225.744 577.855L225.736 577.879L224.128 576.935C168.438 544.239 133.743 509.504 118.74 470.732C106.615 439.405 108.64 408.15 117.399 377.378C126.157 346.611 141.718 316.095 156.916 286.228L162.54 275.158C175.621 249.294 188.199 223.191 195.728 197.09C204.332 167.261 206.267 137.676 195.024 108.67L194.358 106.994C180.1 71.8407 147.693 39.5736 94.7061 8.44135L93.0801 7.48627L95.8545 0.0839233L97.4619 1.02826ZM143.671 1.02826C199.36 33.7246 234.055 68.4581 249.059 107.229C261.204 138.532 259.188 169.774 250.427 200.54C241.667 231.3 226.095 261.817 210.872 291.684C195.863 321.16 180.665 350.99 172.061 380.82C163.456 410.65 161.522 440.235 172.765 469.241L172.822 469.391L172.832 469.435C186.763 505.185 219.337 537.937 273.094 569.521L274.636 570.428L274.645 570.405L276.252 571.349C331.941 604.045 366.636 638.778 381.64 677.55C393.785 708.852 391.769 740.095 383.008 770.861C374.248 801.622 358.675 832.137 343.452 862.004C328.443 891.48 313.246 921.311 304.642 951.141C296.037 980.97 294.103 1010.56 305.346 1039.56L305.403 1039.71L305.413 1039.75C319.344 1075.5 351.917 1108.26 405.674 1139.84L407.301 1140.8L404.526 1148.2L402.919 1147.26C347.229 1114.56 312.533 1079.82 297.53 1041.05C285.405 1009.73 287.43 978.471 296.189 947.699C304.947 916.932 320.508 886.416 335.707 856.549L341.331 845.478C354.412 819.614 366.99 793.512 374.519 767.411C383.123 737.582 385.057 707.997 373.814 678.991L373.149 677.314C358.891 642.161 326.484 609.895 273.497 578.763L271.953 577.855L271.945 577.879L270.338 576.935C214.648 544.239 179.953 509.504 164.95 470.732C152.825 439.405 154.849 408.15 163.608 377.378C172.366 346.611 187.927 316.095 203.126 286.228L208.75 275.158C221.831 249.294 234.409 223.191 241.938 197.09C250.542 167.261 252.477 137.676 241.234 108.67L240.568 106.994C226.31 71.8407 193.903 39.5736 140.916 8.44135L139.29 7.48627L142.064 0.0839233L143.671 1.02826ZM189.881 1.02826C245.57 33.7246 280.265 68.4581 295.269 107.229C307.414 138.532 305.398 169.774 296.637 200.54C287.877 231.301 272.304 261.817 257.081 291.684C242.072 321.16 226.875 350.99 218.271 380.82C209.666 410.65 207.732 440.235 218.975 469.241L219.032 469.391L219.042 469.435C232.973 505.184 265.546 537.937 319.303 569.521L320.846 570.428L320.855 570.405L322.462 571.349C378.151 604.045 412.846 638.778 427.85 677.55C439.995 708.852 437.979 740.095 429.218 770.861C420.458 801.622 404.885 832.137 389.662 862.004C374.653 891.48 359.456 921.311 350.852 951.141C342.247 980.97 340.313 1010.56 351.556 1039.56L351.613 1039.71L351.623 1039.75C365.554 1075.5 398.127 1108.26 451.884 1139.84L453.511 1140.8L450.736 1148.2L449.129 1147.26C393.439 1114.56 358.743 1079.82 343.74 1041.05C331.615 1009.73 333.64 978.471 342.399 947.699C351.157 916.932 366.718 886.416 381.917 856.549L387.541 845.478C400.622 819.614 413.2 793.512 420.729 767.411C429.333 737.582 431.267 707.997 420.024 678.991L419.358 677.314C405.1 642.161 372.693 609.895 319.707 578.763L318.163 577.855L318.155 577.879L316.548 576.935C260.858 544.239 226.162 509.504 211.159 470.732C199.034 439.405 201.059 408.15 209.818 377.378C218.576 346.611 234.137 316.095 249.336 286.228L254.96 275.158C268.041 249.294 280.619 223.191 288.147 197.09C296.751 167.261 298.686 137.676 287.443 108.67L286.778 106.994C272.52 71.8407 240.113 39.5736 187.126 8.44135L185.499 7.48627L188.273 0.0839233L189.881 1.02826ZM236.091 1.02826C291.78 33.7246 326.475 68.4582 341.479 107.229C353.623 138.532 351.608 169.774 342.847 200.54C334.087 231.301 318.514 261.817 303.291 291.684C288.282 321.16 273.085 350.99 264.48 380.82C255.876 410.65 253.941 440.235 265.184 469.241L265.242 469.391L265.252 469.435C279.183 505.184 311.756 537.937 365.513 569.521L367.055 570.429L367.064 570.405L368.672 571.349C424.361 604.045 459.056 638.778 474.06 677.55C486.205 708.852 484.189 740.095 475.428 770.861C466.668 801.622 451.095 832.137 435.872 862.004C420.863 891.48 405.666 921.311 397.062 951.141C388.457 980.97 386.522 1010.56 397.765 1039.56L397.822 1039.71L397.833 1039.75C411.764 1075.5 444.337 1108.26 498.094 1139.84L499.72 1140.8L496.946 1148.2L495.338 1147.26C439.648 1114.56 404.953 1079.82 389.95 1041.05C377.825 1009.72 379.85 978.472 388.609 947.699C397.367 916.932 412.927 886.416 428.126 856.549L433.75 845.478C446.831 819.614 459.409 793.512 466.938 767.411C475.542 737.582 477.477 707.997 466.234 678.991L465.568 677.314C451.31 642.161 418.903 609.895 365.916 578.763L364.373 577.855L364.365 577.879L362.758 576.935C307.068 544.239 272.372 509.504 257.369 470.732C245.244 439.405 247.269 408.15 256.028 377.378C264.786 346.611 280.346 316.095 295.545 286.228L301.17 275.158C314.251 249.294 326.828 223.191 334.356 197.09C342.96 167.261 344.896 137.676 333.653 108.67L332.987 106.994C318.729 71.8407 286.322 39.5735 233.336 8.44135L231.709 7.48627L234.483 0.0839233L236.091 1.02826ZM282.301 1.02826C337.99 33.7245 372.685 68.4582 387.689 107.229C399.833 138.532 397.817 169.774 389.057 200.54C380.297 231.3 364.724 261.817 349.501 291.684C334.492 321.16 319.295 350.99 310.69 380.82C302.086 410.65 300.151 440.235 311.394 469.241L311.451 469.391L311.461 469.435C325.392 505.185 357.966 537.937 411.723 569.521L413.265 570.428L413.273 570.405L414.882 571.349C470.571 604.045 505.266 638.779 520.27 677.55C532.415 708.852 530.399 740.095 521.638 770.861C512.878 801.622 497.305 832.137 482.082 862.004C467.073 891.48 451.875 921.311 443.271 951.141C434.666 980.97 432.732 1010.56 443.975 1039.56L444.032 1039.71L444.042 1039.75C457.973 1075.5 490.547 1108.26 544.304 1139.84L545.93 1140.8L543.155 1148.2L541.548 1147.26C485.858 1114.56 451.163 1079.82 436.16 1041.05C424.035 1009.72 426.059 978.471 434.818 947.699C443.576 916.932 459.137 886.416 474.336 856.549L479.96 845.478C493.041 819.614 505.619 793.512 513.147 767.411C521.752 737.582 523.687 707.997 512.444 678.991L511.778 677.314C497.52 642.161 465.112 609.895 412.126 578.763L410.583 577.855L410.575 577.879L408.967 576.935C353.277 544.239 318.582 509.504 303.579 470.732C291.454 439.405 293.478 408.15 302.237 377.378C310.995 346.611 326.556 316.095 341.755 286.228L347.379 275.158C360.46 249.294 373.038 223.191 380.566 197.09C389.17 167.261 391.106 137.676 379.863 108.67L379.197 106.994C364.939 71.8407 332.531 39.5736 279.545 8.44135L277.919 7.48627L280.692 0.0839233L282.301 1.02826ZM328.51 1.02826C384.199 33.7246 418.894 68.4581 433.897 107.229C446.042 138.532 444.027 169.774 435.266 200.54C426.506 231.301 410.933 261.817 395.71 291.684C380.701 321.16 365.504 350.99 356.899 380.82C348.295 410.65 346.361 440.235 357.604 469.241L357.661 469.391L357.671 469.435C371.602 505.184 404.175 537.937 457.932 569.521L459.475 570.428L459.483 570.405L461.091 571.349C516.78 604.045 551.475 638.778 566.479 677.55C578.624 708.852 576.608 740.095 567.847 770.861C559.087 801.622 543.514 832.137 528.291 862.004C513.282 891.48 498.085 921.311 489.48 951.141C480.876 980.97 478.942 1010.56 490.185 1039.56L490.242 1039.71L490.252 1039.75C504.183 1075.5 536.756 1108.26 590.513 1139.84L592.14 1140.8L589.365 1148.2L587.758 1147.26C532.068 1114.56 497.372 1079.82 482.369 1041.05C470.244 1009.73 472.269 978.471 481.028 947.699C489.786 916.932 505.347 886.416 520.546 856.549L526.17 845.478C539.251 819.614 551.829 793.512 559.357 767.411C567.962 737.582 569.896 707.997 558.653 678.991L557.988 677.314C543.73 642.161 511.322 609.895 458.336 578.763L456.792 577.855L456.784 577.879L455.177 576.935C399.487 544.239 364.791 509.504 349.788 470.732C337.663 439.405 339.688 408.15 348.447 377.378C357.205 346.611 372.766 316.095 387.965 286.228L393.589 275.158C406.67 249.294 419.248 223.191 426.776 197.09C435.38 167.261 437.315 137.676 426.072 108.67L425.407 106.994C411.149 71.8407 378.741 39.5736 325.755 8.44135L324.128 7.48627L326.902 0.0839233L328.51 1.02826ZM374.72 1.02826C430.409 33.7246 465.104 68.4582 480.107 107.229C492.252 138.532 490.236 169.774 481.476 200.54C472.716 231.301 457.143 261.817 441.92 291.684C426.911 321.16 411.714 350.99 403.109 380.82C394.505 410.65 392.571 440.235 403.814 469.241L403.871 469.391L403.881 469.435C417.812 505.184 450.385 537.937 504.142 569.521L505.685 570.428L505.693 570.405L507.301 571.349C562.99 604.045 597.685 638.778 612.689 677.55C624.834 708.852 622.818 740.095 614.057 770.861C605.297 801.622 589.724 832.137 574.501 862.004C559.492 891.48 544.295 921.311 535.69 951.141C527.086 980.97 525.152 1010.56 536.395 1039.56L536.452 1039.71L536.462 1039.75C550.393 1075.5 582.966 1108.26 636.723 1139.84L638.35 1140.8L635.575 1148.2L633.968 1147.26C578.278 1114.56 543.582 1079.82 528.579 1041.05C516.454 1009.72 518.479 978.472 527.238 947.699C535.996 916.932 551.556 886.416 566.755 856.549L572.38 845.478C585.461 819.614 598.038 793.512 605.566 767.411C614.17 737.582 616.106 707.997 604.863 678.991L604.197 677.314C589.939 642.161 557.532 609.895 504.546 578.763L503.002 577.855L502.994 577.879L501.387 576.935C445.697 544.239 411.001 509.504 395.998 470.732C383.873 439.405 385.898 408.15 394.657 377.378C403.415 346.611 418.976 316.095 434.175 286.228L439.799 275.158C452.88 249.294 465.457 223.191 472.986 197.09C481.59 167.261 483.525 137.676 472.282 108.67L471.616 106.994C457.358 71.8407 424.951 39.5736 371.965 8.44135L370.338 7.48627L373.112 0.0839233L374.72 1.02826ZM420.93 1.02826C476.619 33.7246 511.314 68.4582 526.317 107.229C538.462 138.532 536.446 169.774 527.686 200.54C518.926 231.301 503.353 261.817 488.13 291.684C473.121 321.16 457.924 350.99 449.319 380.82C440.715 410.65 438.78 440.235 450.022 469.241L450.08 469.391L450.091 469.435C464.022 505.184 496.595 537.937 550.352 569.521L551.894 570.428L551.902 570.405L553.511 571.349C609.2 604.045 643.895 638.778 658.898 677.55C671.044 708.852 669.028 740.095 660.267 770.861C651.507 801.622 635.934 832.137 620.711 862.004C605.702 891.48 590.505 921.311 581.9 951.141C573.296 980.97 571.361 1010.56 582.604 1039.56L582.661 1039.71L582.671 1039.75C596.602 1075.5 629.176 1108.26 682.933 1139.84L684.559 1140.8L681.785 1148.2L680.177 1147.26C624.487 1114.56 589.792 1079.82 574.789 1041.05C562.664 1009.73 564.688 978.471 573.447 947.699C582.205 916.932 597.766 886.416 612.965 856.549L618.589 845.478C631.67 819.614 644.248 793.512 651.776 767.411C660.38 737.582 662.315 707.997 651.073 678.991L650.407 677.314C636.149 642.161 603.741 609.895 550.755 578.763L549.212 577.855L549.204 577.879L547.596 576.935C491.906 544.239 457.211 509.504 442.208 470.732C430.083 439.405 432.108 408.15 440.867 377.378C449.625 346.611 465.185 316.095 480.384 286.228L486.008 275.158C499.089 249.294 511.666 223.191 519.195 197.09C527.799 167.261 529.735 137.676 518.492 108.67L517.826 106.994C503.568 71.8407 471.16 39.5736 418.174 8.44135L416.548 7.48627L419.321 0.0839233L420.93 1.02826ZM467.139 1.02826C522.828 33.7246 557.523 68.4581 572.526 107.229C584.671 138.532 582.655 169.774 573.895 200.54C565.135 231.301 549.562 261.817 534.339 291.684C519.33 321.16 504.133 350.99 495.528 380.82C486.924 410.65 484.99 440.235 496.232 469.241L496.29 469.391L496.3 469.435C510.231 505.184 542.804 537.937 596.561 569.521L598.104 570.428L598.112 570.405L599.72 571.349C655.409 604.045 690.104 638.778 705.107 677.55C717.253 708.852 715.237 740.095 706.476 770.861C697.716 801.622 682.143 832.137 666.92 862.004C651.911 891.48 636.714 921.311 628.109 951.141C619.505 980.97 617.571 1010.56 628.814 1039.56L628.871 1039.71L628.881 1039.75C642.812 1075.5 675.385 1108.26 729.142 1139.84L730.769 1140.8L727.994 1148.2L726.387 1147.26C670.697 1114.56 636.001 1079.82 620.998 1041.05C608.873 1009.73 610.898 978.471 619.657 947.699C628.415 916.932 643.976 886.416 659.175 856.549L664.799 845.478C677.88 819.614 690.458 793.512 697.986 767.411C706.59 737.582 708.525 707.997 697.282 678.991L696.617 677.314C682.359 642.161 649.951 609.895 596.965 578.763L595.421 577.855L595.413 577.879L593.806 576.935C538.116 544.239 503.421 509.504 488.418 470.732C476.293 439.405 478.317 408.15 487.076 377.378C495.834 346.611 511.395 316.095 526.594 286.228L532.218 275.158C545.299 249.294 557.876 223.191 565.405 197.09C574.009 167.261 575.945 137.676 564.702 108.67L564.036 106.994C549.778 71.8407 517.37 39.5736 464.384 8.44135L462.758 7.48627L465.531 0.0839233L467.139 1.02826ZM513.349 1.02826C569.038 33.7246 603.733 68.4581 618.736 107.229C630.881 138.532 628.865 169.774 620.105 200.54C611.345 231.301 595.772 261.817 580.549 291.684C565.54 321.16 550.343 350.99 541.738 380.82C533.134 410.65 531.2 440.235 542.442 469.241L542.5 469.391L542.51 469.435C556.441 505.184 589.014 537.937 642.771 569.521L644.314 570.428L644.322 570.405L645.93 571.349C701.619 604.045 736.314 638.778 751.317 677.55C763.463 708.852 761.447 740.095 752.686 770.861C743.926 801.622 728.353 832.137 713.13 862.004C698.121 891.48 682.924 921.311 674.319 951.141C665.715 980.97 663.781 1010.56 675.023 1039.56L675.081 1039.71L675.091 1039.75C689.022 1075.5 721.595 1108.26 775.352 1139.84L776.979 1140.8L774.204 1148.2L772.597 1147.26C716.907 1114.56 682.211 1079.82 667.208 1041.05C655.083 1009.73 657.108 978.471 665.867 947.699C674.625 916.932 690.186 886.416 705.385 856.549L711.009 845.478C724.09 819.614 736.667 793.512 744.196 767.411C752.8 737.582 754.734 707.997 743.492 678.991L742.826 677.314C728.568 642.161 696.161 609.895 643.175 578.763L641.631 577.855L641.623 577.879L640.016 576.935C584.326 544.239 549.63 509.504 534.627 470.732C522.502 439.405 524.527 408.15 533.286 377.378C542.044 346.611 557.605 316.095 572.804 286.228L578.428 275.158C591.509 249.294 604.086 223.191 611.615 197.09C620.219 167.261 622.153 137.676 610.911 108.67L610.246 106.994C595.988 71.8407 563.58 39.5736 510.594 8.44135L508.967 7.48627L511.741 0.0839233L513.349 1.02826ZM559.559 1.02826C615.248 33.7246 649.943 68.4582 664.946 107.229C677.091 138.532 675.075 169.774 666.314 200.54C657.555 231.301 641.982 261.817 626.759 291.684C611.75 321.16 596.553 350.99 587.948 380.82C579.344 410.65 577.409 440.235 588.651 469.241L588.709 469.391L588.72 469.435C602.651 505.184 635.224 537.937 688.98 569.521L690.522 570.429L690.532 570.405L692.14 571.349C747.829 604.045 782.524 638.778 797.527 677.55C809.672 708.852 807.656 740.095 798.896 770.861C790.136 801.622 774.563 832.137 759.34 862.004C744.331 891.48 729.134 921.311 720.529 951.141C711.925 980.97 709.99 1010.56 721.232 1039.56L721.29 1039.71L721.301 1039.75C735.232 1075.5 767.805 1108.26 821.562 1139.84L823.188 1140.8L820.414 1148.2L818.806 1147.26C763.116 1114.56 728.421 1079.82 713.418 1041.05C701.293 1009.72 703.318 978.472 712.077 947.699C720.835 916.932 736.395 886.416 751.594 856.549L757.218 845.478C770.299 819.614 782.876 793.512 790.405 767.411C799.009 737.582 800.944 707.997 789.702 678.991L789.036 677.314C774.778 642.161 742.37 609.895 689.384 578.763L687.841 577.855L687.833 577.879L686.226 576.935C630.536 544.239 595.84 509.504 580.837 470.732C568.712 439.405 570.737 408.15 579.496 377.378C588.254 346.611 603.814 316.095 619.013 286.228L624.638 275.158C637.719 249.294 650.295 223.191 657.824 197.09C666.428 167.261 668.363 137.676 657.121 108.67L656.455 106.994C642.197 71.8407 609.79 39.5735 556.804 8.44135L555.177 7.48627L557.951 0.0839233L559.559 1.02826ZM605.769 1.02826C661.458 33.7245 696.153 68.4582 711.156 107.229C723.301 138.532 721.285 169.774 712.524 200.54C703.765 231.3 688.192 261.817 672.969 291.684C657.96 321.16 642.763 350.99 634.158 380.82C625.554 410.65 623.619 440.235 634.861 469.241L634.919 469.391L634.929 469.435C648.859 505.185 681.434 537.937 735.19 569.521L736.732 570.428L736.741 570.405L738.35 571.349C794.039 604.045 828.734 638.779 843.737 677.55C855.882 708.852 853.866 740.095 845.105 770.861C836.346 801.622 820.773 832.137 805.55 862.004C790.541 891.48 775.343 921.311 766.738 951.141C758.134 980.97 756.2 1010.56 767.442 1039.56L767.5 1039.71L767.51 1039.75C781.44 1075.5 814.014 1108.26 867.772 1139.84L869.397 1140.8L866.623 1148.2L865.016 1147.26C809.326 1114.56 774.631 1079.82 759.628 1041.05C747.503 1009.72 749.527 978.471 758.286 947.699C767.044 916.932 782.605 886.416 797.804 856.549L803.428 845.478C816.509 819.614 829.086 793.512 836.615 767.411C845.219 737.582 847.154 707.997 835.912 678.991L835.246 677.314C820.988 642.161 788.58 609.895 735.594 578.763L734.051 577.855L734.043 577.879L732.435 576.935C676.745 544.239 642.05 509.504 627.047 470.732C614.922 439.405 616.946 408.15 625.705 377.378C634.463 346.611 650.024 316.095 665.223 286.228L670.847 275.158C683.928 249.294 696.505 223.191 704.034 197.09C712.638 167.261 714.573 137.676 703.331 108.67L702.665 106.994C688.407 71.8407 655.999 39.5736 603.013 8.44135L601.387 7.48627L604.16 0.0839233L605.769 1.02826ZM650.693 1.02826C706.382 33.7245 741.078 68.4573 756.081 107.228C768.226 138.531 766.21 169.774 757.449 200.54C748.69 231.301 733.117 261.817 717.894 291.684C702.885 321.16 687.687 350.99 679.083 380.82C670.479 410.65 668.544 440.235 679.787 469.241L679.845 469.391L679.855 469.434C693.785 505.184 726.358 537.936 780.115 569.521L781.658 570.428L781.667 570.405L783.274 571.349C838.964 604.045 873.659 638.778 888.662 677.55C900.807 708.852 898.791 740.095 890.03 770.861C881.271 801.622 865.698 832.137 850.475 862.004C835.466 891.48 820.269 921.311 811.664 951.141C803.06 980.97 801.125 1010.56 812.368 1039.56L812.426 1039.71L812.436 1039.75C826.366 1075.5 858.939 1108.26 912.696 1139.84L914.323 1140.8L911.549 1148.2L909.941 1147.26C854.252 1114.56 819.556 1079.82 804.553 1041.05C792.428 1009.73 794.453 978.471 803.212 947.699C811.97 916.932 827.531 886.416 842.73 856.549L848.354 845.478C861.435 819.614 874.012 793.512 881.541 767.411C890.145 737.582 892.079 707.997 880.837 678.991L880.171 677.314C865.913 642.161 833.506 609.895 780.52 578.763L778.976 577.855L778.968 577.879L777.36 576.935C721.671 544.239 686.975 509.504 671.972 470.732C659.846 439.405 661.872 408.15 670.631 377.378C679.389 346.611 694.95 316.094 710.148 286.227L715.772 275.158C728.854 249.294 741.43 223.191 748.959 197.09C757.563 167.261 759.498 137.676 748.256 108.67L747.59 106.993C733.331 71.8399 700.925 39.5734 647.939 8.44135L646.312 7.48627L649.086 0.0839233L650.693 1.02826ZM696.903 1.02826C752.592 33.7245 787.288 68.4573 802.291 107.228C814.436 138.531 812.42 169.774 803.659 200.54C794.9 231.301 779.327 261.817 764.104 291.684C749.095 321.16 733.897 350.99 725.293 380.82C716.689 410.65 714.753 440.235 725.996 469.241L726.054 469.391L726.064 469.434C739.995 505.184 772.568 537.936 826.325 569.521L827.867 570.428L827.876 570.405L829.484 571.349C885.174 604.045 919.869 638.778 934.872 677.55C947.017 708.852 945.001 740.095 936.24 770.861C927.481 801.622 911.908 832.137 896.685 862.004C881.676 891.48 866.478 921.311 857.874 951.141C849.27 980.97 847.334 1010.56 858.577 1039.56L858.635 1039.71L858.646 1039.75C872.576 1075.5 905.149 1108.26 958.906 1139.84L960.532 1140.8L957.759 1148.2L956.15 1147.26C900.461 1114.56 865.766 1079.82 850.763 1041.05C838.637 1009.72 840.663 978.472 849.422 947.699C858.18 916.932 873.74 886.416 888.939 856.549L894.563 845.478C907.644 819.614 920.221 793.512 927.75 767.411C936.354 737.582 938.289 707.997 927.047 678.991L926.381 677.314C912.123 642.161 879.715 609.895 826.729 578.763L825.186 577.855L825.178 577.879L823.569 576.935C767.88 544.239 733.185 509.504 718.182 470.732C706.056 439.405 708.081 408.15 716.84 377.378C725.598 346.611 741.159 316.094 756.357 286.227L761.981 275.158C775.063 249.294 787.64 223.191 795.169 197.09C803.773 167.261 805.708 137.676 794.466 108.67L793.8 106.993C779.541 71.8398 747.134 39.5735 694.147 8.44135L692.522 7.48627L695.295 0.0839233L696.903 1.02826ZM743.112 1.02826C798.801 33.7245 833.497 68.4574 848.5 107.228C860.645 138.531 858.629 169.774 849.868 200.54C841.109 231.301 825.536 261.817 810.313 291.684C795.304 321.16 780.106 350.99 771.502 380.82C762.898 410.65 760.963 440.235 772.206 469.241L772.264 469.391L772.273 469.434C786.204 505.184 818.777 537.937 872.534 569.521L874.077 570.428L874.086 570.405L875.693 571.349C931.382 604.045 966.078 638.778 981.081 677.55C993.226 708.852 991.21 740.095 982.449 770.861C973.69 801.622 958.117 832.137 942.894 862.004C927.885 891.48 912.687 921.311 904.083 951.141C895.479 980.97 893.544 1010.56 904.787 1039.56L904.845 1039.71L904.855 1039.75C918.785 1075.5 951.359 1108.26 1005.12 1139.84L1006.74 1140.8L1003.97 1148.2L1002.36 1147.26C946.671 1114.56 911.976 1079.82 896.973 1041.05C884.847 1009.72 886.872 978.472 895.631 947.699C904.389 916.932 919.95 886.416 935.148 856.549L940.772 845.478C953.854 819.614 966.431 793.512 973.96 767.411C982.564 737.582 984.499 707.997 973.257 678.991L972.591 677.314C958.333 642.161 925.925 609.895 872.939 578.763L871.396 577.854L871.387 577.879L869.779 576.935C814.09 544.239 779.395 509.504 764.392 470.732C752.266 439.405 754.291 408.15 763.05 377.378C771.808 346.611 787.369 316.094 802.567 286.227L808.191 275.158C821.273 249.294 833.85 223.191 841.379 197.09C849.983 167.261 851.918 137.676 840.676 108.67L840.01 106.993C825.751 71.8398 793.344 39.5735 740.357 8.44135L738.73 7.48627L741.505 0.0839233L743.112 1.02826ZM789.322 1.02826C845.011 33.7245 879.707 68.4573 894.71 107.228C906.855 138.531 904.839 169.774 896.078 200.54C887.319 231.301 871.746 261.817 856.522 291.684C841.514 321.16 826.316 350.99 817.712 380.82C809.108 410.65 807.173 440.235 818.416 469.241L818.474 469.391L818.483 469.434C832.414 505.184 864.987 537.937 918.744 569.521L920.287 570.428L920.296 570.405L921.903 571.349C977.592 604.045 1012.29 638.778 1027.29 677.55C1039.44 708.852 1037.42 740.095 1028.66 770.861C1019.9 801.622 1004.33 832.137 989.104 862.004C974.095 891.48 958.897 921.311 950.293 951.141C941.689 980.97 939.754 1010.56 950.997 1039.56L951.055 1039.71L951.064 1039.75C964.995 1075.5 997.568 1108.26 1051.33 1139.84L1052.95 1140.8L1050.18 1148.2L1048.57 1147.26C992.88 1114.56 958.185 1079.82 943.182 1041.05C931.057 1009.73 933.082 978.471 941.841 947.699C950.599 916.932 966.16 886.416 981.358 856.549L986.982 845.478C1000.06 819.614 1012.64 793.512 1020.17 767.411C1028.77 737.582 1030.71 707.997 1019.47 678.991L1018.8 677.314C1004.54 642.161 972.135 609.895 919.148 578.763L917.605 577.855L917.597 577.879L915.989 576.935C860.299 544.239 825.604 509.504 810.601 470.732C798.475 439.405 800.501 408.15 809.26 377.378C818.018 346.611 833.579 316.094 848.777 286.227L854.401 275.158C867.483 249.294 880.06 223.191 887.589 197.09C896.193 167.261 898.127 137.676 886.885 108.67L886.22 106.993C871.961 71.8398 839.554 39.5735 786.567 8.44135L784.94 7.48627L787.715 0.0839233L789.322 1.02826ZM835.532 1.02826C891.221 33.7245 925.917 68.4573 940.92 107.228C953.065 138.531 951.049 169.774 942.288 200.54C933.529 231.301 917.956 261.817 902.732 291.684C887.724 321.16 872.526 350.99 863.922 380.82C855.318 410.65 853.382 440.235 864.625 469.241L864.683 469.391L864.693 469.434C878.624 505.184 911.197 537.936 964.954 569.521L966.496 570.429L966.506 570.405L968.113 571.349C1023.8 604.045 1058.5 638.778 1073.5 677.55C1085.65 708.852 1083.63 740.095 1074.87 770.861C1066.11 801.622 1050.54 832.137 1035.31 862.004C1020.3 891.48 1005.11 921.311 996.503 951.141C987.899 980.97 985.963 1010.56 997.206 1039.56L997.265 1039.71L997.274 1039.75C1011.21 1075.5 1043.78 1108.26 1097.54 1139.84L1099.16 1140.8L1096.39 1148.2L1094.78 1147.26C1039.09 1114.56 1004.39 1079.82 989.392 1041.05C977.266 1009.72 979.292 978.472 988.051 947.699C996.809 916.932 1012.37 886.416 1027.57 856.549L1033.19 845.478C1046.27 819.614 1058.85 793.512 1066.38 767.411C1074.98 737.582 1076.92 707.997 1065.68 678.991L1065.01 677.314C1050.75 642.161 1018.34 609.895 965.358 578.763L963.814 577.855L963.807 577.879L962.199 576.935C906.509 544.239 871.814 509.504 856.811 470.732C844.685 439.405 846.711 408.15 855.47 377.378C864.227 346.611 879.788 316.094 894.986 286.227L900.611 275.158C913.693 249.294 926.269 223.191 933.798 197.09C942.402 167.261 944.337 137.676 933.095 108.67L932.429 106.993C918.17 71.8399 885.763 39.5735 832.776 8.44135L831.15 7.48627L833.925 0.0839233L835.532 1.02826ZM881.742 1.02826C937.431 33.7245 972.127 68.4573 987.13 107.228C999.275 138.531 997.259 169.774 988.498 200.54C979.739 231.301 964.166 261.817 948.942 291.684C933.934 321.16 918.735 350.99 910.131 380.82C901.527 410.65 899.592 440.235 910.835 469.241L910.893 469.391L910.902 469.434C924.833 505.184 957.407 537.936 1011.16 569.521L1012.71 570.428L1012.71 570.405L1014.32 571.349C1070.01 604.045 1104.71 638.778 1119.71 677.55C1131.86 708.852 1129.84 740.095 1121.08 770.861C1112.32 801.622 1096.75 832.137 1081.52 862.004C1066.51 891.48 1051.32 921.311 1042.71 951.141C1034.11 980.97 1032.17 1010.56 1043.42 1039.56L1043.47 1039.71L1043.48 1039.75C1057.41 1075.5 1089.99 1108.26 1143.75 1139.84L1145.37 1140.8L1142.6 1148.2L1140.99 1147.26C1085.3 1114.56 1050.6 1079.82 1035.6 1041.05C1023.48 1009.73 1025.5 978.471 1034.26 947.699C1043.02 916.932 1058.58 886.416 1073.78 856.549L1079.4 845.478C1092.48 819.614 1105.06 793.512 1112.59 767.411C1121.19 737.582 1123.13 707.997 1111.89 678.991L1111.22 677.314C1096.96 642.161 1064.55 609.895 1011.57 578.763L1010.02 577.855L1010.02 577.879L1008.41 576.935C952.719 544.239 918.024 509.504 903.021 470.732C890.895 439.405 892.92 408.15 901.679 377.378C910.436 346.611 925.998 316.094 941.196 286.227L946.82 275.158C959.902 249.294 972.479 223.191 980.008 197.09C988.612 167.261 990.547 137.676 979.305 108.67L978.639 106.993C964.38 71.8398 931.973 39.5735 878.986 8.44135L877.36 7.48627L880.134 0.0839233L881.742 1.02826ZM927.951 1.02826C983.64 33.7245 1018.34 68.4573 1033.34 107.228C1045.48 138.531 1043.47 169.774 1034.71 200.54C1025.95 231.301 1010.37 261.817 995.151 291.684C980.143 321.16 964.945 350.99 956.341 380.82C947.737 410.65 945.802 440.235 957.045 469.241L957.103 469.391L957.112 469.434C971.043 505.184 1003.62 537.937 1057.37 569.521L1058.92 570.428L1058.92 570.405L1060.53 571.349C1116.22 604.045 1150.92 638.778 1165.92 677.55C1178.07 708.852 1176.05 740.095 1167.29 770.861C1158.53 801.622 1142.96 832.137 1127.73 862.004C1112.72 891.48 1097.53 921.311 1088.92 951.141C1080.32 980.97 1078.38 1010.56 1089.63 1039.56L1089.68 1039.71L1089.69 1039.75C1103.62 1075.5 1136.2 1108.26 1189.95 1139.84L1191.58 1140.8L1188.81 1148.2L1187.2 1147.26C1131.51 1114.56 1096.81 1079.82 1081.81 1041.05C1069.69 1009.73 1071.71 978.471 1080.47 947.699C1089.23 916.932 1104.79 886.416 1119.99 856.549L1125.61 845.478C1138.69 819.614 1151.27 793.512 1158.8 767.411C1167.4 737.582 1169.34 707.997 1158.09 678.991L1157.43 677.314C1143.17 642.161 1110.76 609.895 1057.78 578.763L1056.23 577.855L1056.23 577.879L1054.62 576.935C998.928 544.239 964.232 509.504 949.23 470.732C937.104 439.405 939.129 408.15 947.889 377.378C956.646 346.611 972.208 316.094 987.406 286.227L993.03 275.158C1006.11 249.294 1018.69 223.191 1026.22 197.09C1034.82 167.261 1036.76 137.676 1025.51 108.67L1024.85 106.993C1010.59 71.8398 978.183 39.5735 925.196 8.44135L923.569 7.48627L926.344 0.0839233L927.951 1.02826ZM974.161 1.02826C1029.85 33.7245 1064.55 68.4573 1079.55 107.228C1091.69 138.531 1089.68 169.774 1080.92 200.54C1072.16 231.301 1056.58 261.817 1041.36 291.684C1026.35 321.16 1011.16 350.99 1002.55 380.82C993.947 410.65 992.012 440.235 1003.25 469.241L1003.31 469.391L1003.32 469.434C1017.25 505.184 1049.83 537.936 1103.58 569.521L1105.13 570.428L1105.13 570.405L1106.74 571.349C1162.43 604.045 1197.13 638.778 1212.13 677.55C1224.28 708.852 1222.26 740.095 1213.5 770.861C1204.74 801.622 1189.17 832.137 1173.94 862.004C1158.93 891.48 1143.74 921.311 1135.13 951.141C1126.53 980.97 1124.59 1010.56 1135.84 1039.56L1135.89 1039.71L1135.9 1039.75C1149.83 1075.5 1182.41 1108.26 1236.16 1139.84L1237.79 1140.8L1235.02 1148.2L1233.41 1147.26C1177.72 1114.56 1143.02 1079.82 1128.02 1041.05C1115.9 1009.73 1117.92 978.471 1126.68 947.699C1135.44 916.932 1151 886.416 1166.2 856.549L1171.82 845.478C1184.9 819.614 1197.48 793.512 1205.01 767.411C1213.61 737.582 1215.55 707.997 1204.3 678.991L1203.64 677.314C1189.38 642.161 1156.97 609.895 1103.99 578.763L1102.44 577.855L1102.44 577.879L1100.83 576.935C1045.14 544.239 1010.44 509.504 995.439 470.732C983.314 439.405 985.339 408.15 994.099 377.378C1002.86 346.611 1018.42 316.094 1033.62 286.227L1039.24 275.158C1052.32 249.294 1064.9 223.191 1072.43 197.09C1081.03 167.261 1082.97 137.676 1071.72 108.67L1071.06 106.993C1056.8 71.8399 1024.39 39.5734 971.406 8.44135L969.779 7.48627L972.554 0.0839233L974.161 1.02826ZM1020.37 1.02826C1076.06 33.7245 1110.76 68.4573 1125.76 107.228C1137.9 138.531 1135.89 169.774 1127.13 200.54C1118.37 231.301 1102.79 261.817 1087.57 291.684C1072.56 321.16 1057.37 350.99 1048.76 380.82C1040.16 410.65 1038.22 440.235 1049.46 469.241L1049.52 469.391L1049.53 469.434C1063.46 505.184 1096.04 537.936 1149.79 569.521L1151.33 570.428L1151.34 570.405L1152.95 571.349C1208.64 604.045 1243.34 638.778 1258.34 677.55C1270.48 708.852 1268.47 740.095 1259.71 770.861C1250.95 801.622 1235.38 832.137 1220.15 862.004C1205.14 891.48 1189.95 921.311 1181.34 951.141C1172.74 980.97 1170.8 1010.56 1182.04 1039.56L1182.1 1039.71L1182.11 1039.75C1196.04 1075.5 1228.62 1108.26 1282.37 1139.84L1284 1140.8L1281.23 1148.2L1279.62 1147.26C1223.93 1114.56 1189.23 1079.82 1174.23 1041.05C1162.11 1009.72 1164.13 978.472 1172.89 947.699C1181.65 916.932 1197.21 886.416 1212.41 856.549L1218.03 845.478C1231.11 819.614 1243.69 793.512 1251.22 767.411C1259.82 737.582 1261.76 707.997 1250.51 678.991L1249.85 677.314C1235.59 642.161 1203.18 609.895 1150.2 578.763L1148.65 577.855L1148.65 577.879L1147.04 576.935C1091.35 544.239 1056.65 509.504 1041.65 470.732C1029.52 439.405 1031.55 408.15 1040.31 377.378C1049.07 346.611 1064.63 316.094 1079.83 286.227L1085.45 275.158C1098.53 249.294 1111.11 223.191 1118.64 197.09C1127.24 167.261 1129.18 137.676 1117.93 108.67L1117.27 106.993C1103.01 71.8398 1070.6 39.5735 1017.62 8.44135L1015.99 7.48627L1018.76 0.0839233L1020.37 1.02826ZM1066.58 1.02826C1122.27 33.7245 1156.96 68.4574 1171.97 107.228C1184.11 138.531 1182.1 169.774 1173.34 200.54C1164.58 231.301 1149 261.817 1133.78 291.684C1118.77 321.16 1103.57 350.99 1094.97 380.82C1086.37 410.65 1084.43 440.235 1095.67 469.241L1095.73 469.391L1095.74 469.434C1109.67 505.184 1142.25 537.937 1196 569.521L1197.54 570.428L1197.55 570.405L1199.16 571.349C1254.85 604.045 1289.55 638.778 1304.55 677.55C1316.69 708.852 1314.68 740.095 1305.92 770.861C1297.16 801.622 1281.58 832.137 1266.36 862.004C1251.35 891.48 1236.16 921.311 1227.55 951.141C1218.95 980.97 1217.01 1010.56 1228.25 1039.56L1228.31 1039.71L1228.32 1039.75C1242.25 1075.5 1274.83 1108.26 1328.58 1139.84L1330.21 1140.8L1327.44 1148.2L1325.83 1147.26C1270.14 1114.56 1235.44 1079.82 1220.44 1041.05C1208.32 1009.72 1210.34 978.472 1219.1 947.699C1227.86 916.932 1243.42 886.416 1258.62 856.549L1264.24 845.478C1277.32 819.614 1289.9 793.512 1297.43 767.411C1306.03 737.582 1307.97 707.997 1296.72 678.991L1296.06 677.314C1281.8 642.161 1249.39 609.895 1196.41 578.763L1194.86 577.854L1194.85 577.879L1193.25 576.935C1137.56 544.239 1102.86 509.504 1087.86 470.732C1075.73 439.405 1077.76 408.15 1086.52 377.378C1095.28 346.611 1110.84 316.094 1126.04 286.227L1131.66 275.158C1144.74 249.294 1157.32 223.191 1164.85 197.09C1173.45 167.261 1175.38 137.676 1164.14 108.67L1163.48 106.993C1149.22 71.8398 1116.81 39.5735 1063.83 8.44135L1062.2 7.48627L1064.97 0.0839233L1066.58 1.02826ZM1112.79 1.02826C1168.48 33.7245 1203.17 68.4573 1218.18 107.228C1230.32 138.531 1228.31 169.774 1219.55 200.54C1210.79 231.301 1195.21 261.817 1179.99 291.684C1164.98 321.16 1149.78 350.99 1141.18 380.82C1132.58 410.65 1130.64 440.235 1141.88 469.241L1141.94 469.391L1141.95 469.434C1155.88 505.184 1188.46 537.936 1242.21 569.521L1243.75 570.428L1243.76 570.405L1245.37 571.349C1301.06 604.045 1335.76 638.778 1350.76 677.55C1362.9 708.852 1360.89 740.095 1352.13 770.861C1343.37 801.622 1327.79 832.137 1312.57 862.004C1297.56 891.48 1282.37 921.311 1273.76 951.141C1265.16 980.97 1263.22 1010.56 1274.46 1039.56L1274.52 1039.71L1274.53 1039.75C1288.46 1075.5 1321.04 1108.26 1374.79 1139.84L1376.42 1140.8L1373.65 1148.2L1372.04 1147.26C1316.35 1114.56 1281.65 1079.82 1266.65 1041.05C1254.52 1009.73 1256.55 978.471 1265.31 947.699C1274.07 916.932 1289.63 886.416 1304.83 856.549L1310.45 845.478C1323.53 819.614 1336.11 793.512 1343.64 767.411C1352.24 737.582 1354.18 707.997 1342.93 678.991L1342.27 677.314C1328.01 642.161 1295.6 609.895 1242.62 578.763L1241.07 577.855L1241.06 577.879L1239.46 576.935C1183.77 544.239 1149.07 509.504 1134.07 470.732C1121.94 439.405 1123.97 408.15 1132.73 377.378C1141.49 346.611 1157.05 316.094 1172.25 286.227L1177.87 275.158C1190.95 249.294 1203.53 223.191 1211.06 197.09C1219.66 167.261 1221.59 137.676 1210.35 108.67L1209.69 106.993C1195.43 71.8398 1163.02 39.5735 1110.04 8.44135L1108.41 7.48627L1111.18 0.0839233L1112.79 1.02826ZM1159 1.02826C1214.69 33.7245 1249.38 68.4573 1264.39 107.228C1276.53 138.531 1274.52 169.774 1265.76 200.54C1257 231.301 1241.42 261.817 1226.2 291.684C1211.19 321.16 1195.99 350.99 1187.39 380.82C1178.79 410.65 1176.85 440.235 1188.09 469.241L1188.15 469.391L1188.16 469.434C1202.09 505.184 1234.66 537.936 1288.42 569.521L1289.96 570.429L1289.97 570.405L1291.58 571.349C1347.27 604.045 1381.97 638.778 1396.97 677.55C1409.11 708.852 1407.1 740.095 1398.34 770.861C1389.58 801.622 1374 832.137 1358.78 862.004C1343.77 891.48 1328.58 921.311 1319.97 951.141C1311.37 980.97 1309.43 1010.56 1320.67 1039.56L1320.73 1039.71L1320.74 1039.75C1334.67 1075.5 1367.25 1108.26 1421 1139.84L1422.63 1140.8L1419.86 1148.2L1418.25 1147.26C1362.56 1114.56 1327.86 1079.82 1312.86 1041.05C1300.73 1009.72 1302.76 978.472 1311.52 947.699C1320.28 916.932 1335.84 886.416 1351.04 856.549L1356.66 845.478C1369.74 819.614 1382.32 793.512 1389.85 767.411C1398.45 737.582 1400.39 707.997 1389.14 678.991L1388.48 677.314C1374.22 642.161 1341.81 609.895 1288.83 578.763L1287.28 577.855L1287.27 577.879L1285.67 576.935C1229.98 544.239 1195.28 509.504 1180.28 470.732C1168.15 439.405 1170.18 408.15 1178.94 377.378C1187.7 346.611 1203.26 316.094 1218.45 286.227L1224.08 275.158C1237.16 249.294 1249.74 223.191 1257.27 197.09C1265.87 167.261 1267.8 137.676 1256.56 108.67L1255.9 106.993C1241.64 71.8399 1209.23 39.5735 1156.24 8.44135L1154.62 7.48627L1157.39 0.0839233L1159 1.02826ZM1205.21 1.02826C1260.9 33.7245 1295.59 68.4574 1310.6 107.228C1322.74 138.531 1320.73 169.774 1311.96 200.54C1303.21 231.3 1287.63 261.817 1272.41 291.684C1257.4 321.16 1242.2 350.99 1233.6 380.82C1224.99 410.65 1223.06 440.235 1234.3 469.241L1234.36 469.391L1234.37 469.434C1248.3 505.184 1280.87 537.936 1334.63 569.521L1336.17 570.428L1336.18 570.405L1337.79 571.349C1393.48 604.045 1428.18 638.779 1443.18 677.55C1455.32 708.852 1453.31 740.095 1444.55 770.861C1435.79 801.622 1420.21 832.137 1404.99 862.004C1389.98 891.48 1374.79 921.311 1366.18 951.141C1357.58 980.97 1355.64 1010.56 1366.88 1039.56L1366.94 1039.71L1366.95 1039.75C1380.88 1075.5 1413.46 1108.26 1467.21 1139.84L1468.84 1140.8L1466.07 1148.2L1464.46 1147.26C1408.77 1114.56 1374.07 1079.82 1359.07 1041.05C1346.94 1009.73 1348.97 978.471 1357.73 947.699C1366.49 916.932 1382.05 886.416 1397.25 856.549L1402.87 845.478C1415.95 819.614 1428.53 793.512 1436.06 767.411C1444.66 737.582 1446.6 707.997 1435.35 678.991L1434.69 677.314C1420.43 642.161 1388.02 609.895 1335.04 578.763L1333.49 577.854L1333.48 577.879L1331.88 576.935C1276.19 544.239 1241.49 509.504 1226.49 470.732C1214.36 439.405 1216.39 408.15 1225.15 377.378C1233.9 346.611 1249.47 316.094 1264.66 286.227L1270.29 275.158C1283.37 249.294 1295.95 223.191 1303.48 197.09C1312.08 167.261 1314.01 137.676 1302.77 108.67L1302.11 106.993C1287.85 71.8398 1255.44 39.5735 1202.45 8.44135L1200.83 7.48627L1203.6 0.0839233L1205.21 1.02826ZM1251.42 1.02826C1307.11 33.7245 1341.8 68.4573 1356.81 107.228C1368.95 138.531 1366.94 169.774 1358.17 200.54C1349.42 231.301 1333.84 261.817 1318.62 291.684C1303.61 321.16 1288.41 350.99 1279.81 380.82C1271.2 410.65 1269.27 440.235 1280.51 469.241L1280.57 469.391L1280.58 469.434C1294.51 505.184 1327.08 537.937 1380.84 569.521L1382.38 570.428L1382.39 570.405L1384 571.349C1439.69 604.045 1474.38 638.778 1489.39 677.55C1501.53 708.852 1499.52 740.095 1490.76 770.861C1482 801.622 1466.42 832.137 1451.2 862.004C1436.19 891.48 1420.99 921.311 1412.39 951.141C1403.79 980.97 1401.85 1010.56 1413.09 1039.56L1413.15 1039.71L1413.16 1039.75C1427.09 1075.5 1459.66 1108.26 1513.42 1139.84L1515.05 1140.8L1512.27 1148.2L1510.67 1147.26C1454.98 1114.56 1420.28 1079.82 1405.28 1041.05C1393.15 1009.73 1395.18 978.471 1403.94 947.699C1412.7 916.932 1428.26 886.416 1443.46 856.549L1449.08 845.478C1462.16 819.614 1474.74 793.512 1482.27 767.411C1490.87 737.582 1492.8 707.997 1481.56 678.991L1480.9 677.314C1466.64 642.161 1434.23 609.895 1381.25 578.763L1379.7 577.855L1379.69 577.879L1378.09 576.935C1322.4 544.239 1287.7 509.504 1272.7 470.732C1260.57 439.405 1262.6 408.15 1271.36 377.378C1280.11 346.611 1295.68 316.094 1310.87 286.227L1316.5 275.158C1329.58 249.294 1342.16 223.191 1349.69 197.09C1358.29 167.261 1360.22 137.676 1348.98 108.67L1348.32 106.993C1334.06 71.8398 1301.65 39.5735 1248.66 8.44135L1247.04 7.48627L1249.81 0.0839233L1251.42 1.02826Z" fill="white"/>
</svg>
