<svg width="713" height="713" viewBox="0 0 713 713" fill="none" xmlns="http://www.w3.org/2000/svg">
<path d="M0.328125 524.069C4.05974 533.268 7.19158 542.564 9.72754 551.966C23.7862 603.927 18.0658 654.661 2.96484 704.082C2.12677 706.825 1.25719 709.564 0.362305 712.301H0.328125V663.289C7.32184 629.017 8.43186 594.681 0.328125 560.289V524.069ZM0.328125 430.94C38.0681 470.914 62.5548 512.137 74.291 555.65C88.3497 607.612 82.6283 658.346 67.5273 707.767C67.0652 709.279 66.5939 710.79 66.1143 712.301H52.4844C53.7012 708.693 54.8703 705.082 55.9863 701.469C70.7809 653.563 76.2354 605.522 63.2246 557.374L62.4502 554.591C52.0333 518.059 31.5894 482.801 0.328125 448.07V430.94ZM1.48242 377.928C76.2501 435.631 121.497 494.979 138.854 559.335C152.913 611.296 147.191 662.031 132.09 711.451C132.003 711.735 131.915 712.018 131.828 712.301H118.272C119.053 709.919 119.814 707.537 120.55 705.153C135.344 657.247 140.798 609.207 127.787 561.06L127.013 558.275C110.625 500.805 69.4239 446.486 0.328125 392.416V377.037L1.48242 377.928ZM0.328125 323.435C17.7118 341.848 38.1633 360.128 61.8018 378.385L63.8721 379.982L63.8867 379.947L66.0449 381.613C140.813 439.317 186.059 498.665 203.417 563.021C217.207 613.989 211.966 663.776 197.509 712.301H184.026C184.394 711.147 184.757 709.993 185.113 708.838C199.908 660.932 205.36 612.892 192.35 564.744L191.576 561.96C174.923 503.557 132.644 448.41 61.5068 393.47L59.4346 391.869L59.4209 391.907L57.2627 390.242C35.8828 373.742 16.9185 357.105 0.328125 340.257V323.435ZM0.328125 226.242C19.2375 279.984 60.3889 331.116 126.364 382.069L128.436 383.668L128.45 383.632L130.609 385.298C205.377 443.001 250.624 502.35 267.981 566.705C281.423 616.384 276.781 664.941 263.15 712.301H249.744C264.487 664.468 269.905 616.502 256.914 568.429L256.14 565.645C239.486 507.242 197.207 452.095 126.069 397.154L123.998 395.555L123.984 395.592L121.826 393.927C63.7998 349.144 23.5556 303.369 0.328125 255.032V226.242ZM94.4883 0.457031C83.9705 23.6094 74.5404 46.8906 67.3115 70.2979C52.5166 118.205 47.0628 166.246 60.0742 214.395L60.1406 214.641L60.1504 214.714C76.2905 274.062 118.757 330.015 190.929 385.754L192.999 387.352L193.014 387.316L195.172 388.982C269.94 446.686 315.186 506.034 332.544 570.39C345.637 618.781 341.573 666.108 328.756 712.301H315.424C329.316 665.69 334.134 618.953 321.477 572.113L320.702 569.329C304.049 510.927 261.771 455.779 190.634 400.839L188.562 399.238L188.548 399.277L186.389 397.611C111.62 339.907 66.3738 280.557 49.0166 216.2C34.9879 164.2 40.7232 113.447 55.8223 64.0166C62.3489 42.6503 70.6481 21.4616 79.9072 0.457031H94.4883ZM160.735 0.457031C149.541 24.8235 139.487 49.3331 131.875 73.9824C117.08 121.889 111.625 169.931 124.637 218.079L124.704 218.325L124.714 218.398C140.854 277.747 183.319 333.699 255.491 389.438L257.562 391.037L257.576 391.001L259.735 392.667C334.503 450.371 379.75 509.719 397.107 574.074C409.852 621.18 406.341 667.277 394.323 712.301H381.066C394.121 666.911 398.365 621.403 386.041 575.798L385.267 573.014C368.613 514.611 326.334 459.464 255.196 404.523L253.125 402.924L253.111 402.962L250.953 401.296C176.184 343.591 130.937 284.241 113.58 219.885C99.5514 167.884 105.286 117.132 120.385 67.7012C127.293 45.0844 136.191 22.6681 146.108 0.457031H160.735ZM227 0.457031C215.123 26.0369 204.434 51.7748 196.438 77.667C181.643 125.574 176.189 173.615 189.2 221.764L189.268 222.011L189.276 222.083C205.416 281.432 247.882 337.384 320.054 393.123L322.125 394.723L322.141 394.687L324.299 396.352C399.067 454.055 444.313 513.403 461.671 577.759C474.068 623.58 471.082 668.447 459.848 712.301H446.671C458.903 668.133 462.594 623.853 450.604 579.482L449.829 576.698C433.176 518.296 390.897 463.148 319.76 408.208L317.688 406.608L317.674 406.646L315.516 404.98C240.747 347.276 195.5 287.926 178.143 223.569C164.114 171.569 169.849 120.816 184.948 71.3857C192.239 47.5177 201.744 23.8727 212.326 0.457031H227ZM293.281 0.457031C280.718 27.2492 269.381 54.216 261.001 81.3516C246.206 129.258 240.752 177.3 253.764 225.448L253.831 225.695L253.841 225.768C269.981 285.116 312.446 341.068 384.618 396.808L386.688 398.406L386.703 398.371L388.861 400.036C463.629 457.74 508.877 517.088 526.234 581.443C538.285 625.982 535.801 669.619 525.336 712.301H512.233C523.658 669.355 526.824 626.304 515.167 583.167L514.393 580.384C497.739 521.981 455.461 466.833 384.323 411.893L382.251 410.293L382.237 410.331L380.079 408.665C305.31 350.961 260.063 291.611 242.706 227.254C228.678 175.253 234.413 124.501 249.512 75.0703C257.185 49.9499 267.31 25.0759 278.563 0.457031H293.281ZM357.736 0.457031C344.502 28.4271 332.523 56.5885 323.77 84.9336C308.975 132.841 303.522 180.883 316.533 229.031L316.599 229.277L316.609 229.351C332.749 288.699 375.215 344.652 447.387 400.391L449.457 401.988L449.472 401.953L451.631 403.619C526.399 461.323 571.645 520.671 589.003 585.026C600.716 628.32 598.696 670.761 588.963 712.301H575.936C586.591 670.544 589.268 628.688 577.936 586.75L577.161 583.966C560.508 525.563 518.229 470.417 447.092 415.477L445.02 413.875L445.006 413.913L442.848 412.248C368.079 354.544 322.833 295.193 305.476 230.837C291.447 178.836 297.182 128.083 312.281 78.6523C320.327 52.3133 331.066 26.2442 342.977 0.457031H357.736ZM424.053 0.457031C410.126 29.6383 397.472 59.0278 388.334 88.6182C373.539 136.525 368.084 184.567 381.096 232.716L381.163 232.962L381.173 233.035C397.313 292.384 439.779 348.336 511.95 404.075L514.021 405.674L514.036 405.638L516.193 407.304C590.961 465.007 636.208 524.355 653.565 588.711C664.933 630.725 663.367 671.937 654.369 712.301H641.419C651.3 671.766 653.498 631.139 642.499 590.435L641.726 587.65C625.072 529.248 582.792 474.101 511.655 419.161L509.584 417.561L509.57 417.598L507.411 415.933C432.642 358.228 387.395 298.878 370.038 234.521C356.009 182.521 361.745 131.768 376.844 82.3379C385.273 54.7434 396.659 27.4452 409.251 0.457031H424.053ZM712.171 712.301H706.858C709.1 702.646 710.895 692.986 712.171 683.321V712.301ZM490.382 0.457031C475.761 30.8488 462.42 61.4673 452.896 92.3037C438.102 140.21 432.648 188.252 445.659 236.4L445.726 236.646L445.735 236.72C461.875 296.068 504.342 352.021 576.514 407.76L578.584 409.358L578.599 409.322L580.758 410.988C648.144 462.995 691.549 516.338 712.171 573.479V618.87C710.98 610.623 709.293 602.373 707.062 594.119L706.288 591.335C689.635 532.932 647.355 477.786 576.218 422.846L574.146 421.244L574.133 421.283L571.975 419.617C497.206 361.913 451.959 302.563 434.602 238.206C420.573 186.205 426.308 135.453 441.407 86.0225C450.22 57.1712 462.267 28.6447 475.544 0.457031H490.382ZM556.724 0.457031C541.408 32.0582 527.367 63.9054 517.459 95.9883C502.664 143.895 497.211 191.936 510.223 240.085L510.29 240.332L510.299 240.404C526.439 299.753 568.905 355.705 641.076 411.444L643.147 413.043L643.162 413.007L645.32 414.673C671.088 434.56 693.349 454.642 712.171 475.057V492.375C692.804 470.266 669.076 448.382 640.782 426.53L638.711 424.93L638.696 424.968L636.538 423.302C561.769 365.597 516.522 306.247 499.165 241.891C485.136 189.89 490.872 139.138 505.971 89.707C515.168 59.5979 527.887 29.8427 541.851 0.457031H556.724ZM623.079 0.457031C607.07 33.2669 592.317 66.3426 582.023 99.6729C567.229 147.58 561.774 195.621 574.785 243.77L574.853 244.017L574.862 244.089C591.002 303.437 633.468 359.39 705.64 415.129L707.711 416.729L707.726 416.692L709.885 418.357C710.651 418.948 711.411 419.542 712.171 420.134V435.559C709.926 433.777 707.65 431.996 705.345 430.215L703.273 428.615L703.26 428.652L701.101 426.986C626.332 369.282 581.086 309.932 563.729 245.575C549.7 193.575 555.434 142.822 570.533 93.3916C580.115 62.0235 593.519 31.0392 608.171 0.457031H623.079ZM689.444 0.457031C672.743 34.4745 657.265 68.7793 646.586 103.357C631.791 151.264 626.338 199.306 639.35 247.455L639.415 247.701L639.426 247.774C650.624 288.952 674.497 328.495 712.171 367.466V384.146C668.771 340.994 641.026 296.474 628.292 249.26C614.263 197.259 619.999 146.507 635.098 97.0762C645.064 64.4478 659.165 32.2341 674.506 0.457031H689.444ZM712.171 103.788C711.826 104.873 711.485 105.957 711.15 107.042C696.355 154.949 690.901 202.991 703.912 251.14L703.979 251.386L703.989 251.459C706.213 259.637 708.938 267.75 712.171 275.808V302.363C703.814 286.191 697.384 269.738 692.854 252.944C678.826 200.944 684.561 150.191 699.66 100.761C703.32 88.7782 707.539 76.852 712.171 64.9824V103.788ZM28.2607 0.457031C18.4133 22.3944 9.59347 44.4467 2.74805 66.6123C1.91035 69.3248 1.10427 72.0386 0.328125 74.752V33.5928C4.44262 22.498 8.94774 11.4522 13.7295 0.457031H28.2607Z" fill="white"/>
</svg>
